<svg width="25" height="30" viewBox="0 0 25 30" fill="none" xmlns="http://www.w3.org/2000/svg">
<path d="M18.8664 11.1141C18.3033 11.2464 17.9539 11.8108 18.086 12.3747C18.2181 12.9387 18.7816 13.2886 19.3447 13.1563C19.9078 13.024 20.2572 12.4596 20.1251 11.8957C19.993 11.3317 19.4295 10.9818 18.8664 11.1141Z" fill="#F5F3E1"/>
<path d="M16.2289 15.4798C15.665 15.6411 15.1011 15.3184 14.94 14.915C14.8595 14.5116 15.1817 14.1082 15.7456 13.9468C16.3095 13.7855 16.8733 14.1082 17.0345 14.5116C17.115 14.915 16.7928 15.3991 16.2289 15.4798Z" fill="#F5F3E1"/>
<path d="M2.13184 7.41167L1.16519 3.05494C0.923521 2.08678 1.64851 1.11861 2.61517 1.11861C5.27347 1.11861 7.93177 1.84474 10.1873 3.2163H16.9539C20.8205 3.2163 23.8816 6.28215 23.8816 10.0741V22.1761C23.8816 25.5647 21.4649 28.3078 18.2428 28.8726C17.5983 28.9533 17.0344 28.4692 17.0344 27.8238V27.017C17.0344 26.6942 17.1955 26.2908 17.5178 26.1295C18.8066 25.4033 19.6122 24.0318 19.6122 22.4989V21.1273C19.6122 20.4819 19.2094 19.9171 18.6455 19.7557L14.5372 18.1421M13.9628 6.10038L10.4743 3.6095C7.97712 1.75385 5.91791 1.11861 2.69573 1.11861M2.05129 7.08891L1.56796 4.74918C1.89018 4.42646 2.29295 4.2651 2.69573 4.2651C5.83736 4.2651 8.89843 5.31394 11.4762 7.16959L13.8928 8.94455V11.607M23.8816 15.8025H21.7872M23.8816 17.9001H21.7872M23.8816 19.9978H22.2705M11.1852 15.4367C12.7707 15.4193 14.0112 14.078 14.0112 12.4945V8.94455C14.0112 8.90677 13.9933 8.87124 13.9628 8.8489L11.5462 7.07394L11.5453 7.07327C8.9488 5.20413 5.86382 4.14649 2.69573 4.14649C2.31489 4.14649 1.93601 4.28018 1.61696 4.5443L1.28079 3.02921L1.28008 3.02617C1.05588 2.128 1.7305 1.23723 2.61517 1.23723C5.25244 1.23723 7.88938 1.95772 10.1258 3.31769C10.1444 3.32895 10.1656 3.33491 10.1873 3.33491H16.9539C20.756 3.33491 23.7631 6.34856 23.7631 10.0741V22.1761C23.7631 25.5043 21.391 28.199 18.2252 28.7553C17.6501 28.8256 17.1529 28.3943 17.1529 27.8238V27.017C17.1529 26.7212 17.3025 26.3699 17.5707 26.2356C17.5724 26.2347 17.5741 26.2338 17.5758 26.2328C18.9025 25.4854 19.7306 24.0741 19.7306 22.4989V21.1273C19.7306 20.437 19.3009 19.8229 18.6836 19.6433L14.5805 18.0317C14.5196 18.0078 14.4509 18.0378 14.427 18.0988C14.4031 18.1598 14.4331 18.2286 14.494 18.2526L18.6023 19.8662C18.6058 19.8675 18.6094 19.8687 18.613 19.8698C19.1204 20.015 19.4938 20.5288 19.4938 21.1273V22.4989C19.4938 23.9886 18.7118 25.3196 17.4621 26.0248C17.0878 26.214 16.916 26.6681 16.916 27.017V27.8238C16.916 28.5431 17.5449 29.0795 18.2574 28.9903L18.2601 28.9899L18.2632 28.9894C21.5403 28.415 24 25.6241 24 22.1761V10.0741C24 6.21573 20.885 3.09768 16.9539 3.09768H10.2204C7.95187 1.72567 5.28335 1 2.61517 1C1.56706 1 0.791957 2.04448 1.04989 3.08211L2.01623 7.4374C2.02345 7.46992 2.39493 8.83266 2.42115 8.8489M2.60907 8.82847L1.69818 4.78825C1.99038 4.51717 2.34421 4.38371 2.69573 4.38371C5.8107 4.38371 8.84769 5.42363 11.4066 7.26556L11.4071 7.2659L13.7744 9.00465V12.4945C13.7744 13.9559 12.6312 15.182 11.1852 15.1995M18.086 12.3747C17.9539 11.8108 18.3033 11.2464 18.8664 11.1141C19.4295 10.9818 19.993 11.3317 20.1251 11.8957C20.2572 12.4596 19.9078 13.024 19.3447 13.1563C18.7816 13.2886 18.2181 12.9387 18.086 12.3747ZM14.94 14.915C15.1011 15.3184 15.665 15.6411 16.2289 15.4798C16.7928 15.3991 17.115 14.915 17.0345 14.5116C16.8733 14.1082 16.3095 13.7855 15.7456 13.9468C15.1817 14.1082 14.8595 14.5116 14.94 14.915Z" stroke="#F5F3E1"/>
</svg>
