<svg width="542" height="65" viewBox="0 0 542 65" fill="none" xmlns="http://www.w3.org/2000/svg">
<path d="M120.376 0.999996H147.376V10H130.276V26.65H143.866V35.65H130.276V55H147.376V64H120.376V0.999996ZM153.071 0.999996H162.971V55H179.261V64H153.071V0.999996ZM184.008 0.999996H211.008V10H193.908V26.65H207.498V35.65H193.908V55H211.008V64H184.008V0.999996ZM216.704 0.999996H231.284C236.204 0.999996 239.894 2.32 242.354 4.96C244.814 7.6 246.044 11.47 246.044 16.57V22.78C246.044 27.88 244.814 31.75 242.354 34.39C239.894 37.03 236.204 38.35 231.284 38.35H226.604V64H216.704V0.999996ZM231.284 29.35C232.904 29.35 234.104 28.9 234.884 28C235.724 27.1 236.144 25.57 236.144 23.41V15.94C236.144 13.78 235.724 12.25 234.884 11.35C234.104 10.45 232.904 10 231.284 10H226.604V29.35H231.284ZM251.42 0.999996H261.32V26.65H271.94V0.999996H281.84V64H271.94V35.65H261.32V64H251.42V0.999996ZM296.863 0.999996H310.273L320.533 64H310.633L308.833 51.49V51.67H297.583L295.783 64H286.603L296.863 0.999996ZM307.663 43.12L303.253 11.98H303.073L298.753 43.12H307.663ZM325.336 0.999996H337.756L347.386 38.71H347.566V0.999996H356.386V64H346.216L334.336 18.01H334.156V64H325.336V0.999996ZM377.785 64.9C372.985 64.9 369.325 63.55 366.805 60.85C364.285 58.09 363.025 54.16 363.025 49.06V15.94C363.025 10.84 364.285 6.94 366.805 4.24C369.325 1.48 372.985 0.0999966 377.785 0.0999966C382.585 0.0999966 386.245 1.48 388.765 4.24C391.285 6.94 392.545 10.84 392.545 15.94V21.34H383.185V15.31C383.185 11.17 381.475 9.1 378.055 9.1C374.635 9.1 372.925 11.17 372.925 15.31V49.78C372.925 53.86 374.635 55.9 378.055 55.9C381.475 55.9 383.185 53.86 383.185 49.78V37.45H378.235V28.45H392.545V49.06C392.545 54.16 391.285 58.09 388.765 60.85C386.245 63.55 382.585 64.9 377.785 64.9ZM398.901 0.999996H425.901V10H408.801V26.65H422.391V35.65H408.801V55H425.901V64H398.901V0.999996ZM431.596 0.999996H441.496V55H457.786V64H431.596V0.999996ZM462.534 0.999996H472.434V64H462.534V0.999996ZM492.718 64.9C487.918 64.9 484.288 63.55 481.828 60.85C479.368 58.09 478.138 54.16 478.138 49.06V45.46H487.498V49.78C487.498 53.86 489.208 55.9 492.628 55.9C494.308 55.9 495.568 55.42 496.408 54.46C497.308 53.44 497.758 51.82 497.758 49.6C497.758 46.96 497.158 44.65 495.958 42.67C494.758 40.63 492.538 38.2 489.298 35.38C485.218 31.78 482.368 28.54 480.748 25.66C479.128 22.72 478.318 19.42 478.318 15.76C478.318 10.78 479.578 6.94 482.098 4.24C484.618 1.48 488.278 0.0999966 493.078 0.0999966C497.818 0.0999966 501.388 1.48 503.788 4.24C506.248 6.94 507.478 10.84 507.478 15.94V18.55H498.118V15.31C498.118 13.15 497.698 11.59 496.858 10.63C496.018 9.61 494.788 9.1 493.168 9.1C489.868 9.1 488.218 11.11 488.218 15.13C488.218 17.41 488.818 19.54 490.018 21.52C491.278 23.5 493.528 25.9 496.768 28.72C500.908 32.32 503.758 35.59 505.318 38.53C506.878 41.47 507.658 44.92 507.658 48.88C507.658 54.04 506.368 58 503.788 60.76C501.268 63.52 497.578 64.9 492.718 64.9ZM521.075 10H510.725V0.999996H541.325V10H530.975V64H521.075V10Z" fill="#F5F3E1"/>
<path d="M10.43 10H11.43V9H10.43V10ZM0.08 10H-0.92V11H0.08V10ZM0.08 0.999996V-4.29153e-06H-0.92V0.999996H0.08ZM30.68 0.999996H31.68V-4.29153e-06H30.68V0.999996ZM30.68 10V11H31.68V10H30.68ZM20.33 10V9H19.33V10H20.33ZM20.33 64V65H21.33V64H20.33ZM10.43 64H9.43V65H10.43V64ZM10.43 9H0.08V11H10.43V9ZM1.08 10V0.999996H-0.92V10H1.08ZM0.08 2H30.68V-4.29153e-06H0.08V2ZM29.68 0.999996V10H31.68V0.999996H29.68ZM30.68 9H20.33V11H30.68V9ZM19.33 10V64H21.33V10H19.33ZM20.33 63H10.43V65H20.33V63ZM11.43 64V10H9.43V64H11.43ZM35.4732 0.999996V-4.29153e-06H34.4732V0.999996H35.4732ZM45.3732 0.999996H46.3732V-4.29153e-06H45.3732V0.999996ZM45.3732 26.65H44.3732V27.65H45.3732V26.65ZM55.9932 26.65V27.65H56.9932V26.65H55.9932ZM55.9932 0.999996V-4.29153e-06H54.9932V0.999996H55.9932ZM65.8932 0.999996H66.8932V-4.29153e-06H65.8932V0.999996ZM65.8932 64V65H66.8932V64H65.8932ZM55.9932 64H54.9932V65H55.9932V64ZM55.9932 35.65H56.9932V34.65H55.9932V35.65ZM45.3732 35.65V34.65H44.3732V35.65H45.3732ZM45.3732 64V65H46.3732V64H45.3732ZM35.4732 64H34.4732V65H35.4732V64ZM35.4732 2H45.3732V-4.29153e-06H35.4732V2ZM44.3732 0.999996V26.65H46.3732V0.999996H44.3732ZM45.3732 27.65H55.9932V25.65H45.3732V27.65ZM56.9932 26.65V0.999996H54.9932V26.65H56.9932ZM55.9932 2H65.8932V-4.29153e-06H55.9932V2ZM64.8932 0.999996V64H66.8932V0.999996H64.8932ZM65.8932 63H55.9932V65H65.8932V63ZM56.9932 64V35.65H54.9932V64H56.9932ZM55.9932 34.65H45.3732V36.65H55.9932V34.65ZM44.3732 35.65V64H46.3732V35.65H44.3732ZM45.3732 63H35.4732V65H45.3732V63ZM36.4732 64V0.999996H34.4732V64H36.4732ZM73.2662 0.999996V-4.29153e-06H72.2662V0.999996H73.2662ZM100.266 0.999996H101.266V-4.29153e-06H100.266V0.999996ZM100.266 10V11H101.266V10H100.266ZM83.1662 10V9H82.1662V10H83.1662ZM83.1662 26.65H82.1662V27.65H83.1662V26.65ZM96.7562 26.65H97.7562V25.65H96.7562V26.65ZM96.7562 35.65V36.65H97.7562V35.65H96.7562ZM83.1662 35.65V34.65H82.1662V35.65H83.1662ZM83.1662 55H82.1662V56H83.1662V55ZM100.266 55H101.266V54H100.266V55ZM100.266 64V65H101.266V64H100.266ZM73.2662 64H72.2662V65H73.2662V64ZM73.2662 2H100.266V-4.29153e-06H73.2662V2ZM99.2662 0.999996V10H101.266V0.999996H99.2662ZM100.266 9H83.1662V11H100.266V9ZM82.1662 10V26.65H84.1662V10H82.1662ZM83.1662 27.65H96.7562V25.65H83.1662V27.65ZM95.7562 26.65V35.65H97.7562V26.65H95.7562ZM96.7562 34.65H83.1662V36.65H96.7562V34.65ZM82.1662 35.65V55H84.1662V35.65H82.1662ZM83.1662 56H100.266V54H83.1662V56ZM99.2662 55V64H101.266V55H99.2662ZM100.266 63H73.2662V65H100.266V63ZM74.2662 64V0.999996H72.2662V64H74.2662ZM120.376 0.999996V-4.29153e-06H119.376V0.999996H120.376ZM147.376 0.999996H148.376V-4.29153e-06H147.376V0.999996ZM147.376 10V11H148.376V10H147.376ZM130.276 10V9H129.276V10H130.276ZM130.276 26.65H129.276V27.65H130.276V26.65ZM143.866 26.65H144.866V25.65H143.866V26.65ZM143.866 35.65V36.65H144.866V35.65H143.866ZM130.276 35.65V34.65H129.276V35.65H130.276ZM130.276 55H129.276V56H130.276V55ZM147.376 55H148.376V54H147.376V55ZM147.376 64V65H148.376V64H147.376ZM120.376 64H119.376V65H120.376V64ZM120.376 2H147.376V-4.29153e-06H120.376V2ZM146.376 0.999996V10H148.376V0.999996H146.376ZM147.376 9H130.276V11H147.376V9ZM129.276 10V26.65H131.276V10H129.276ZM130.276 27.65H143.866V25.65H130.276V27.65ZM142.866 26.65V35.65H144.866V26.65H142.866ZM143.866 34.65H130.276V36.65H143.866V34.65ZM129.276 35.65V55H131.276V35.65H129.276ZM130.276 56H147.376V54H130.276V56ZM146.376 55V64H148.376V55H146.376ZM147.376 63H120.376V65H147.376V63ZM121.376 64V0.999996H119.376V64H121.376ZM153.071 0.999996V-4.29153e-06H152.071V0.999996H153.071ZM162.971 0.999996H163.971V-4.29153e-06H162.971V0.999996ZM162.971 55H161.971V56H162.971V55ZM179.261 55H180.261V54H179.261V55ZM179.261 64V65H180.261V64H179.261ZM153.071 64H152.071V65H153.071V64ZM153.071 2H162.971V-4.29153e-06H153.071V2ZM161.971 0.999996V55H163.971V0.999996H161.971ZM162.971 56H179.261V54H162.971V56ZM178.261 55V64H180.261V55H178.261ZM179.261 63H153.071V65H179.261V63ZM154.071 64V0.999996H152.071V64H154.071ZM184.008 0.999996V-4.29153e-06H183.008V0.999996H184.008ZM211.008 0.999996H212.008V-4.29153e-06H211.008V0.999996ZM211.008 10V11H212.008V10H211.008ZM193.908 10V9H192.908V10H193.908ZM193.908 26.65H192.908V27.65H193.908V26.65ZM207.498 26.65H208.498V25.65H207.498V26.65ZM207.498 35.65V36.65H208.498V35.65H207.498ZM193.908 35.65V34.65H192.908V35.65H193.908ZM193.908 55H192.908V56H193.908V55ZM211.008 55H212.008V54H211.008V55ZM211.008 64V65H212.008V64H211.008ZM184.008 64H183.008V65H184.008V64ZM184.008 2H211.008V-4.29153e-06H184.008V2ZM210.008 0.999996V10H212.008V0.999996H210.008ZM211.008 9H193.908V11H211.008V9ZM192.908 10V26.65H194.908V10H192.908ZM193.908 27.65H207.498V25.65H193.908V27.65ZM206.498 26.65V35.65H208.498V26.65H206.498ZM207.498 34.65H193.908V36.65H207.498V34.65ZM192.908 35.65V55H194.908V35.65H192.908ZM193.908 56H211.008V54H193.908V56ZM210.008 55V64H212.008V55H210.008ZM211.008 63H184.008V65H211.008V63ZM185.008 64V0.999996H183.008V64H185.008ZM216.704 0.999996V-4.29153e-06H215.704V0.999996H216.704ZM242.354 4.96L241.622 5.64172L241.622 5.64172L242.354 4.96ZM242.354 34.39L241.622 33.7083L241.622 33.7083L242.354 34.39ZM226.604 38.35V37.35H225.604V38.35H226.604ZM226.604 64V65H227.604V64H226.604ZM216.704 64H215.704V65H216.704V64ZM234.884 28L234.153 27.3177L234.14 27.3311L234.128 27.3451L234.884 28ZM234.884 11.35L234.128 12.0049L234.14 12.0188L234.153 12.0323L234.884 11.35ZM226.604 10V9H225.604V10H226.604ZM226.604 29.35H225.604V30.35H226.604V29.35ZM216.704 2H231.284V-4.29153e-06H216.704V2ZM231.284 2C236.031 2 239.412 3.27027 241.622 5.64172L243.085 4.27827C240.375 1.36972 236.377 -4.29153e-06 231.284 -4.29153e-06V2ZM241.622 5.64172C243.849 8.03212 245.044 11.6184 245.044 16.57H247.044C247.044 11.3216 245.778 7.16787 243.085 4.27827L241.622 5.64172ZM245.044 16.57V22.78H247.044V16.57H245.044ZM245.044 22.78C245.044 27.7316 243.849 31.3179 241.622 33.7083L243.085 35.0717C245.778 32.1821 247.044 28.0284 247.044 22.78H245.044ZM241.622 33.7083C239.412 36.0797 236.031 37.35 231.284 37.35V39.35C236.377 39.35 240.375 37.9803 243.085 35.0717L241.622 33.7083ZM231.284 37.35H226.604V39.35H231.284V37.35ZM225.604 38.35V64H227.604V38.35H225.604ZM226.604 63H216.704V65H226.604V63ZM217.704 64V0.999996H215.704V64H217.704ZM231.284 30.35C233.084 30.35 234.608 29.8452 235.639 28.6549L234.128 27.3451C233.6 27.9548 232.723 28.35 231.284 28.35V30.35ZM235.615 28.6823C236.718 27.5 237.144 25.6484 237.144 23.41H235.144C235.144 25.4916 234.729 26.7 234.153 27.3177L235.615 28.6823ZM237.144 23.41V15.94H235.144V23.41H237.144ZM237.144 15.94C237.144 13.7016 236.718 11.85 235.615 10.6677L234.153 12.0323C234.729 12.65 235.144 13.8584 235.144 15.94H237.144ZM235.639 10.6951C234.608 9.50476 233.084 9 231.284 9V11C232.723 11 233.6 11.3952 234.128 12.0049L235.639 10.6951ZM231.284 9H226.604V11H231.284V9ZM225.604 10V29.35H227.604V10H225.604ZM226.604 30.35H231.284V28.35H226.604V30.35ZM251.42 0.999996V-4.29153e-06H250.42V0.999996H251.42ZM261.32 0.999996H262.32V-4.29153e-06H261.32V0.999996ZM261.32 26.65H260.32V27.65H261.32V26.65ZM271.94 26.65V27.65H272.94V26.65H271.94ZM271.94 0.999996V-4.29153e-06H270.94V0.999996H271.94ZM281.84 0.999996H282.84V-4.29153e-06H281.84V0.999996ZM281.84 64V65H282.84V64H281.84ZM271.94 64H270.94V65H271.94V64ZM271.94 35.65H272.94V34.65H271.94V35.65ZM261.32 35.65V34.65H260.32V35.65H261.32ZM261.32 64V65H262.32V64H261.32ZM251.42 64H250.42V65H251.42V64ZM251.42 2H261.32V-4.29153e-06H251.42V2ZM260.32 0.999996V26.65H262.32V0.999996H260.32ZM261.32 27.65H271.94V25.65H261.32V27.65ZM272.94 26.65V0.999996H270.94V26.65H272.94ZM271.94 2H281.84V-4.29153e-06H271.94V2ZM280.84 0.999996V64H282.84V0.999996H280.84ZM281.84 63H271.94V65H281.84V63ZM272.94 64V35.65H270.94V64H272.94ZM271.94 34.65H261.32V36.65H271.94V34.65ZM260.32 35.65V64H262.32V35.65H260.32ZM261.32 63H251.42V65H261.32V63ZM252.42 64V0.999996H250.42V64H252.42ZM296.863 0.999996V-4.29153e-06H296.013L295.876 0.839256L296.863 0.999996ZM310.273 0.999996L311.26 0.839256L311.124 -4.29153e-06H310.273V0.999996ZM320.533 64V65H321.709L321.52 63.8393L320.533 64ZM310.633 64L309.644 64.1424L309.767 65H310.633V64ZM308.833 51.49L309.823 51.3476L307.833 51.49H308.833ZM308.833 51.67V52.67H309.833V51.67H308.833ZM297.583 51.67V50.67H296.719L296.594 51.5255L297.583 51.67ZM295.783 64V65H296.648L296.773 64.1445L295.783 64ZM286.603 64L285.616 63.8393L285.427 65H286.603V64ZM307.663 43.12V44.12H308.815L308.654 42.9798L307.663 43.12ZM303.253 11.98L304.244 11.8398L304.122 10.98H303.253V11.98ZM303.073 11.98V10.98H302.203L302.083 11.8426L303.073 11.98ZM298.753 43.12L297.763 42.9826L297.605 44.12H298.753V43.12ZM296.863 2H310.273V-4.29153e-06H296.863V2ZM309.286 1.16074L319.546 64.1607L321.52 63.8393L311.26 0.839256L309.286 1.16074ZM320.533 63H310.633V65H320.533V63ZM311.623 63.8576L309.823 51.3476L307.844 51.6324L309.644 64.1424L311.623 63.8576ZM307.833 51.49V51.67H309.833V51.49H307.833ZM308.833 50.67H297.583V52.67H308.833V50.67ZM296.594 51.5255L294.794 63.8555L296.773 64.1445L298.573 51.8145L296.594 51.5255ZM295.783 63H286.603V65H295.783V63ZM287.59 64.1607L297.85 1.16074L295.876 0.839256L285.616 63.8393L287.59 64.1607ZM308.654 42.9798L304.244 11.8398L302.263 12.1202L306.673 43.2602L308.654 42.9798ZM303.253 10.98H303.073V12.98H303.253V10.98ZM302.083 11.8426L297.763 42.9826L299.744 43.2574L304.064 12.1174L302.083 11.8426ZM298.753 44.12H307.663V42.12H298.753V44.12ZM325.336 0.999996V-4.29153e-06H324.336V0.999996H325.336ZM337.756 0.999996L338.725 0.752566L338.533 -4.29153e-06H337.756V0.999996ZM347.386 38.71L346.418 38.9574L346.61 39.71H347.386V38.71ZM347.566 38.71V39.71H348.566V38.71H347.566ZM347.566 0.999996V-4.29153e-06H346.566V0.999996H347.566ZM356.386 0.999996H357.386V-4.29153e-06H356.386V0.999996ZM356.386 64V65H357.386V64H356.386ZM346.216 64L345.248 64.2501L345.442 65H346.216V64ZM334.336 18.01L335.305 17.7599L335.111 17.01H334.336V18.01ZM334.156 18.01V17.01H333.156V18.01H334.156ZM334.156 64V65H335.156V64H334.156ZM325.336 64H324.336V65H325.336V64ZM325.336 2H337.756V-4.29153e-06H325.336V2ZM336.788 1.24743L346.418 38.9574L348.355 38.4626L338.725 0.752566L336.788 1.24743ZM347.386 39.71H347.566V37.71H347.386V39.71ZM348.566 38.71V0.999996H346.566V38.71H348.566ZM347.566 2H356.386V-4.29153e-06H347.566V2ZM355.386 0.999996V64H357.386V0.999996H355.386ZM356.386 63H346.216V65H356.386V63ZM347.185 63.7499L335.305 17.7599L333.368 18.2601L345.248 64.2501L347.185 63.7499ZM334.336 17.01H334.156V19.01H334.336V17.01ZM333.156 18.01V64H335.156V18.01H333.156ZM334.156 63H325.336V65H334.156V63ZM326.336 64V0.999996H324.336V64H326.336ZM366.805 60.85L366.066 61.5243L366.074 61.5323L366.805 60.85ZM366.805 4.24L367.536 4.92236L367.543 4.91427L366.805 4.24ZM388.765 4.24L388.026 4.91431L388.034 4.92232L388.765 4.24ZM392.545 21.34V22.34H393.545V21.34H392.545ZM383.185 21.34H382.185V22.34H383.185V21.34ZM383.185 37.45H384.185V36.45H383.185V37.45ZM378.235 37.45H377.235V38.45H378.235V37.45ZM378.235 28.45V27.45H377.235V28.45H378.235ZM392.545 28.45H393.545V27.45H392.545V28.45ZM388.765 60.85L389.496 61.5324L389.503 61.5243L388.765 60.85ZM377.785 63.9C373.174 63.9 369.814 62.6089 367.536 60.1677L366.074 61.5323C368.835 64.4911 372.795 65.9 377.785 65.9V63.9ZM367.543 60.1757C365.245 57.6582 364.025 54.0024 364.025 49.06H362.025C362.025 54.3176 363.325 58.5218 366.066 61.5243L367.543 60.1757ZM364.025 49.06V15.94H362.025V49.06H364.025ZM364.025 15.94C364.025 10.9959 365.245 7.37648 367.536 4.92232L366.074 3.55768C363.324 6.50352 362.025 10.6841 362.025 15.94H364.025ZM367.543 4.91427C369.823 2.4171 373.181 1.1 377.785 1.1V-0.900003C372.789 -0.900003 368.826 0.542894 366.066 3.56573L367.543 4.91427ZM377.785 1.1C382.389 1.1 385.746 2.4171 388.026 4.91427L389.503 3.56573C386.743 0.542894 382.781 -0.900003 377.785 -0.900003V1.1ZM388.034 4.92232C390.324 7.37648 391.545 10.9959 391.545 15.94H393.545C393.545 10.6841 392.245 6.50352 389.496 3.55768L388.034 4.92232ZM391.545 15.94V21.34H393.545V15.94H391.545ZM392.545 20.34H383.185V22.34H392.545V20.34ZM384.185 21.34V15.31H382.185V21.34H384.185ZM384.185 15.31C384.185 13.1274 383.738 11.3045 382.673 10.0156C381.578 8.69019 379.975 8.1 378.055 8.1V10.1C379.555 10.1 380.516 10.5448 381.131 11.2894C381.777 12.0705 382.185 13.3526 382.185 15.31H384.185ZM378.055 8.1C376.135 8.1 374.531 8.69019 373.436 10.0156C372.372 11.3045 371.925 13.1274 371.925 15.31H373.925C373.925 13.3526 374.333 12.0705 374.978 11.2894C375.593 10.5448 376.555 10.1 378.055 10.1V8.1ZM371.925 15.31V49.78H373.925V15.31H371.925ZM371.925 49.78C371.925 51.9353 372.373 53.7381 373.441 55.0124C374.537 56.3205 376.14 56.9 378.055 56.9V54.9C376.55 54.9 375.587 54.4595 374.974 53.7276C374.332 52.9619 373.925 51.7047 373.925 49.78H371.925ZM378.055 56.9C379.97 56.9 381.572 56.3205 382.669 55.0124C383.737 53.7381 384.185 51.9353 384.185 49.78H382.185C382.185 51.7047 381.778 52.9619 381.136 53.7276C380.522 54.4595 379.56 54.9 378.055 54.9V56.9ZM384.185 49.78V37.45H382.185V49.78H384.185ZM383.185 36.45H378.235V38.45H383.185V36.45ZM379.235 37.45V28.45H377.235V37.45H379.235ZM378.235 29.45H392.545V27.45H378.235V29.45ZM391.545 28.45V49.06H393.545V28.45H391.545ZM391.545 49.06C391.545 54.0024 390.325 57.6582 388.026 60.1757L389.503 61.5243C392.245 58.5218 393.545 54.3176 393.545 49.06H391.545ZM388.034 60.1677C385.755 62.6089 382.395 63.9 377.785 63.9V65.9C382.774 65.9 386.734 64.4911 389.496 61.5323L388.034 60.1677ZM398.901 0.999996V-4.29153e-06H397.901V0.999996H398.901ZM425.901 0.999996H426.901V-4.29153e-06H425.901V0.999996ZM425.901 10V11H426.901V10H425.901ZM408.801 10V9H407.801V10H408.801ZM408.801 26.65H407.801V27.65H408.801V26.65ZM422.391 26.65H423.391V25.65H422.391V26.65ZM422.391 35.65V36.65H423.391V35.65H422.391ZM408.801 35.65V34.65H407.801V35.65H408.801ZM408.801 55H407.801V56H408.801V55ZM425.901 55H426.901V54H425.901V55ZM425.901 64V65H426.901V64H425.901ZM398.901 64H397.901V65H398.901V64ZM398.901 2H425.901V-4.29153e-06H398.901V2ZM424.901 0.999996V10H426.901V0.999996H424.901ZM425.901 9H408.801V11H425.901V9ZM407.801 10V26.65H409.801V10H407.801ZM408.801 27.65H422.391V25.65H408.801V27.65ZM421.391 26.65V35.65H423.391V26.65H421.391ZM422.391 34.65H408.801V36.65H422.391V34.65ZM407.801 35.65V55H409.801V35.65H407.801ZM408.801 56H425.901V54H408.801V56ZM424.901 55V64H426.901V55H424.901ZM425.901 63H398.901V65H425.901V63ZM399.901 64V0.999996H397.901V64H399.901ZM431.596 0.999996V-4.29153e-06H430.596V0.999996H431.596ZM441.496 0.999996H442.496V-4.29153e-06H441.496V0.999996ZM441.496 55H440.496V56H441.496V55ZM457.786 55H458.786V54H457.786V55ZM457.786 64V65H458.786V64H457.786ZM431.596 64H430.596V65H431.596V64ZM431.596 2H441.496V-4.29153e-06H431.596V2ZM440.496 0.999996V55H442.496V0.999996H440.496ZM441.496 56H457.786V54H441.496V56ZM456.786 55V64H458.786V55H456.786ZM457.786 63H431.596V65H457.786V63ZM432.596 64V0.999996H430.596V64H432.596ZM462.534 0.999996V-4.29153e-06H461.534V0.999996H462.534ZM472.434 0.999996H473.434V-4.29153e-06H472.434V0.999996ZM472.434 64V65H473.434V64H472.434ZM462.534 64H461.534V65H462.534V64ZM462.534 2H472.434V-4.29153e-06H462.534V2ZM471.434 0.999996V64H473.434V0.999996H471.434ZM472.434 63H462.534V65H472.434V63ZM463.534 64V0.999996H461.534V64H463.534ZM481.828 60.85L481.082 61.5154L481.089 61.5235L481.828 60.85ZM478.138 45.46V44.46H477.138V45.46H478.138ZM487.498 45.46H488.498V44.46H487.498V45.46ZM496.408 54.46L495.658 53.7984L495.656 53.8015L496.408 54.46ZM495.958 42.67L495.096 43.1771L495.103 43.1883L495.958 42.67ZM489.298 35.38L488.637 36.1299L488.642 36.1343L489.298 35.38ZM480.748 25.66L479.872 26.1426L479.877 26.1503L480.748 25.66ZM482.098 4.24L482.829 4.92236L482.837 4.91427L482.098 4.24ZM503.788 4.24L503.034 4.89618L503.041 4.90492L503.049 4.91349L503.788 4.24ZM507.478 18.55V19.55H508.478V18.55H507.478ZM498.118 18.55H497.118V19.55H498.118V18.55ZM496.858 10.63L496.086 11.2657L496.096 11.2772L496.106 11.2885L496.858 10.63ZM490.018 21.52L489.163 22.0383L489.169 22.0476L489.175 22.0569L490.018 21.52ZM496.768 28.72L496.112 29.4743L496.112 29.4746L496.768 28.72ZM505.318 38.53L504.435 38.9987L504.435 38.9987L505.318 38.53ZM503.788 60.76L503.058 60.0771L503.05 60.0857L503.788 60.76ZM492.718 63.9C488.106 63.9 484.783 62.6084 482.567 60.1765L481.089 61.5235C483.793 64.4916 487.73 65.9 492.718 65.9V63.9ZM482.575 60.1846C480.331 57.6673 479.138 54.008 479.138 49.06H477.138C477.138 54.312 478.405 58.5127 481.082 61.5154L482.575 60.1846ZM479.138 49.06V45.46H477.138V49.06H479.138ZM478.138 46.46H487.498V44.46H478.138V46.46ZM486.498 45.46V49.78H488.498V45.46H486.498ZM486.498 49.78C486.498 51.9353 486.946 53.7381 488.014 55.0124C489.111 56.3205 490.713 56.9 492.628 56.9V54.9C491.123 54.9 490.161 54.4595 489.547 53.7276C488.905 52.9619 488.498 51.7047 488.498 49.78H486.498ZM492.628 56.9C494.5 56.9 496.075 56.3591 497.161 55.1185L495.656 53.8015C495.061 54.4809 494.117 54.9 492.628 54.9V56.9ZM497.158 55.1216C498.294 53.8339 498.758 51.9193 498.758 49.6H496.758C496.758 51.7207 496.322 53.0461 495.658 53.7984L497.158 55.1216ZM498.758 49.6C498.758 46.8034 498.121 44.309 496.813 42.1517L495.103 43.1883C496.196 44.991 496.758 47.1166 496.758 49.6H498.758ZM496.82 42.163C495.538 39.9831 493.221 37.4687 489.955 34.6257L488.642 36.1343C491.855 38.9313 493.979 41.2769 495.096 43.177L496.82 42.163ZM489.96 34.6302C485.917 31.0628 483.161 27.9093 481.62 25.1697L479.877 26.1503C481.576 29.1707 484.52 32.4972 488.637 36.1298L489.96 34.6302ZM481.624 25.1774C480.093 22.3983 479.318 19.2669 479.318 15.76H477.318C477.318 19.5731 478.164 23.0417 479.872 26.1426L481.624 25.1774ZM479.318 15.76C479.318 10.9434 480.535 7.38052 482.829 4.92232L481.367 3.55768C478.621 6.49948 477.318 10.6166 477.318 15.76H479.318ZM482.837 4.91427C485.117 2.4171 488.474 1.1 493.078 1.1V-0.900003C488.082 -0.900003 484.12 0.542894 481.36 3.56573L482.837 4.91427ZM493.078 1.1C497.62 1.1 500.876 2.41524 503.034 4.89618L504.543 3.58382C501.9 0.544754 498.016 -0.900003 493.078 -0.900003V1.1ZM503.049 4.91349C505.285 7.36736 506.478 10.9902 506.478 15.94H508.478C508.478 10.6898 507.212 6.51264 504.527 3.56651L503.049 4.91349ZM506.478 15.94V18.55H508.478V15.94H506.478ZM507.478 17.55H498.118V19.55H507.478V17.55ZM499.118 18.55V15.31H497.118V18.55H499.118ZM499.118 15.31C499.118 13.0625 498.689 11.2037 497.611 9.97149L496.106 11.2885C496.707 11.9763 497.118 13.2375 497.118 15.31H499.118ZM497.63 9.99429C496.558 8.69192 495.013 8.1 493.168 8.1V10.1C494.564 10.1 495.479 10.5281 496.086 11.2657L497.63 9.99429ZM493.168 8.1C491.306 8.1 489.747 8.67659 488.683 9.973C487.65 11.2316 487.218 13.0085 487.218 15.13H489.218C489.218 13.2315 489.612 11.9934 490.229 11.242C490.814 10.5284 491.73 10.1 493.168 10.1V8.1ZM487.218 15.13C487.218 17.5957 487.87 19.9046 489.163 22.0383L490.873 21.0017C489.767 19.1754 489.218 17.2243 489.218 15.13H487.218ZM489.175 22.0569C490.512 24.1592 492.849 26.6343 496.112 29.4743L497.425 27.9657C494.208 25.1657 492.044 22.8408 490.862 20.9831L489.175 22.0569ZM496.112 29.4746C500.212 33.0394 502.958 36.2149 504.435 38.9987L506.202 38.0613C504.559 34.9651 501.605 31.6006 497.424 27.9654L496.112 29.4746ZM504.435 38.9987C505.905 41.7693 506.658 45.0525 506.658 48.88H508.658C508.658 44.7875 507.851 41.1707 506.202 38.0613L504.435 38.9987ZM506.658 48.88C506.658 53.8805 505.41 57.5612 503.058 60.0771L504.519 61.4429C507.327 58.4388 508.658 54.1995 508.658 48.88H506.658ZM503.05 60.0857C500.772 62.5804 497.386 63.9 492.718 63.9V65.9C497.77 65.9 501.764 64.4596 504.527 61.4343L503.05 60.0857ZM521.075 10H522.075V9H521.075V10ZM510.725 10H509.725V11H510.725V10ZM510.725 0.999996V-4.29153e-06H509.725V0.999996H510.725ZM541.325 0.999996H542.325V-4.29153e-06H541.325V0.999996ZM541.325 10V11H542.325V10H541.325ZM530.975 10V9H529.975V10H530.975ZM530.975 64V65H531.975V64H530.975ZM521.075 64H520.075V65H521.075V64ZM521.075 9H510.725V11H521.075V9ZM511.725 10V0.999996H509.725V10H511.725ZM510.725 2H541.325V-4.29153e-06H510.725V2ZM540.325 0.999996V10H542.325V0.999996H540.325ZM541.325 9H530.975V11H541.325V9ZM529.975 10V64H531.975V10H529.975ZM530.975 63H521.075V65H530.975V63ZM522.075 64V10H520.075V64H522.075Z" fill="#F5F3E1"/>
</svg>
