<?xml version="1.0" encoding="UTF-8" standalone="no"?>
<!-- Created with Inkscape (http://www.inkscape.org/) -->

<svg
   version="1.1"
   id="svg2"
   xml:space="preserve"
   width="2456.6934"
   height="755.90533"
   viewBox="0 0 2456.6934 755.90533"
   sodipodi:docname="huawei_logo (1).ai"
   xmlns:inkscape="http://www.inkscape.org/namespaces/inkscape"
   xmlns:sodipodi="http://sodipodi.sourceforge.net/DTD/sodipodi-0.dtd"
   xmlns="http://www.w3.org/2000/svg"
   xmlns:svg="http://www.w3.org/2000/svg"><defs
     id="defs6"><clipPath
       clipPathUnits="userSpaceOnUse"
       id="clipPath20"><path
         d="M 0,566.929 H 1842.52 V 0 H 0 Z"
         id="path18" /></clipPath></defs><sodipodi:namedview
     id="namedview4"
     pagecolor="#ffffff"
     bordercolor="#666666"
     borderopacity="1.0"
     inkscape:pageshadow="2"
     inkscape:pageopacity="0.0"
     inkscape:pagecheckerboard="0" /><g
     id="g8"
     inkscape:groupmode="layer"
     inkscape:label="huawei_logo (1)"
     transform="matrix(1.3333333,0,0,-1.3333333,0,755.90533)"><g
       id="g10"
       transform="translate(774.7617,282.6927)"><path
         d="m 0,0 h -82.192 v 72.377 h -36.404 v -179.408 h 36.404 v 72.86 H 0 v -72.86 H 36.399 V 72.377 H 0 Z"
         style="fill:#231f20;fill-opacity:1;fill-rule:nonzero;stroke:none"
         id="path12" /></g><g
       id="g14"><g
         id="g16"
         clip-path="url(#clipPath20)"><g
           id="g22"
           transform="translate(979.8174,252.3851)"><path
             d="m 0,0 c 0,-29.173 -14.482,-44.748 -40.777,-44.748 -26.452,0 -41.02,16.015 -41.02,45.985 v 101.342 h -36.398 V 0 c 0,-50.464 28.04,-79.407 76.93,-79.407 49.357,0 77.661,29.483 77.661,80.891 v 101.201 l -36.396,0 z"
             style="fill:#231f20;fill-opacity:1;fill-rule:nonzero;stroke:none"
             id="path24" /></g><g
           id="g26"
           transform="translate(1400.5127,231.7055)"><path
             d="M 0,0 -40.737,123.39 H -70.442 L -111.172,0 -150.799,123.285 h -38.744 l 62.519,-179.329 h 30.147 L -56.083,61.759 -15.298,-56.044 H 15.101 L 77.467,123.285 H 39.72 Z"
             style="fill:#231f20;fill-opacity:1;fill-rule:nonzero;stroke:none"
             id="path28" /></g><g
           id="g30"
           transform="translate(1543.2373,252.8705)"><path
             d="M 0,0 H 66.212 V 32.678 H 0 v 36.721 h 96.106 v 32.679 H -35.909 V -77.094 H 99.565 v 32.676 l -99.565,0 z"
             style="fill:#231f20;fill-opacity:1;fill-rule:nonzero;stroke:none"
             id="path32" /></g><path
           d="m 1686.215,175.911 h 35.909 v 179.171 h -35.909 z"
           style="fill:#231f20;fill-opacity:1;fill-rule:nonzero;stroke:none"
           id="path34" /><g
           id="g36"
           transform="translate(1101.6982,245.4574)"><path
             d="M 0,0 27.428,64.214 55.034,0 Z M 12.005,109.613 -67.032,-69.688 h 37.154 l 16.341,37.343 h 82.104 l 16.109,-37.343 h 38.151 L 44.065,109.613 Z"
             style="fill:#231f20;fill-opacity:1;fill-rule:nonzero;stroke:none"
             id="path38" /></g><g
           id="g40"
           transform="translate(167.1509,409.6234)"><path
             d="m 0,0 c 0,0 -40.921,-37.623 -38.304,-78.275 1.203,-29.269 23.9,-47.504 23.9,-47.504 36.3,-34.618 122.467,-79.003 143.192,-89.287 0.848,-0.421 1.673,-0.168 2.122,0.21 0.656,0.553 0.55,1.615 0.261,2.246 C 75.872,-91.903 0,0 0,0 M 106.404,58.228 C 67.916,48.866 58.422,13.445 58.422,13.445 c -6.69,-18.597 0.234,-46.048 0.234,-46.048 12.774,-56.709 75.677,-149.957 89.469,-169.89 0.517,-0.736 1.269,-1.018 2.053,-0.81 0.501,0.133 1.091,0.526 1.198,1.621 20.911,208.99 -22.109,264.378 -22.109,264.378 -11.779,-1.661 -22.863,-4.468 -22.863,-4.468 m 9.463,-301.905 c -36.27,-1.263 -145.361,-5.064 -145.361,-5.064 32.599,-56.008 70.132,-43.215 70.132,-43.215 20.303,5.723 62.432,35.179 76.322,45.144 0.878,0.629 0.676,1.759 0.444,2.215 -0.297,0.583 -1.034,0.938 -1.537,0.92 m 3.213,14.048 c -63.799,42.99 -187.219,109.266 -187.219,109.266 -11.026,-33.283 3.222,-61.777 3.222,-61.777 15.978,-34.93 46.733,-44.71 46.733,-44.71 13.818,-5.304 25.001,-5.748 25.001,-5.748 2.178,-0.405 88.66,-0.3 111.501,-0.267 0.767,0.004 1.34,0.545 1.508,1.15 0.317,1.142 -0.278,1.771 -0.746,2.086 m 276.813,109.266 c 0,0 -123.42,-66.276 -187.22,-109.266 -0.467,-0.315 -1.062,-0.944 -0.745,-2.086 0.167,-0.605 0.74,-1.146 1.507,-1.15 22.842,-0.033 109.324,-0.138 111.502,0.267 0,0 11.182,0.444 25.001,5.748 0,0 30.755,9.78 46.732,44.71 0,0 14.249,28.494 3.223,61.777 M 210.35,-244.597 c -0.233,-0.456 -0.434,-1.586 0.443,-2.215 13.891,-9.965 56.019,-39.421 76.323,-45.144 0,0 37.532,-12.793 70.132,43.215 0,0 -109.091,3.801 -145.362,5.064 -0.502,0.018 -1.24,-0.337 -1.536,-0.92 m 58.982,258.042 c 0,0 -9.494,35.421 -47.982,44.783 0,0 -11.084,2.807 -22.863,4.468 0,0 -43.02,-55.388 -22.11,-264.378 0.107,-1.095 0.698,-1.488 1.199,-1.621 0.784,-0.208 1.535,0.074 2.052,0.81 13.792,19.933 76.695,113.181 89.469,169.89 0,0 6.925,27.451 0.235,46.048 m 96.725,-91.72 C 368.674,-37.623 327.754,0 327.754,0 c 0,0 -75.872,-91.903 -131.171,-212.61 -0.29,-0.631 -0.396,-1.693 0.261,-2.246 0.448,-0.378 1.274,-0.631 2.122,-0.21 20.725,10.284 106.891,54.669 143.192,89.287 0,0 22.697,18.235 23.899,47.504"
             style="fill:#231f20;fill-opacity:1;fill-rule:nonzero;stroke:none"
             id="path42" /></g></g></g></g></svg>
