<svg width="499" height="110" viewBox="0 0 499 110" fill="none" xmlns="http://www.w3.org/2000/svg">
<path d="M324.48 69.2521L316.56 50.8516L308.682 69.2521L308.133 70.5035H324.988L324.48 69.2521ZM321.867 37.2782L345.831 91.8332H334.145L329.209 80.4189H303.994L303.637 81.2028L299.003 91.8332H287.633L311.831 36.9619H321.551L321.867 37.2782ZM399.615 74.753L387.145 36.9757H378.044L365.574 74.753L353.489 36.9757H341.651L360.789 91.847H369.987L382.457 55.8024L394.927 91.847H404.221L423.318 36.9757H411.755L399.615 74.753ZM443.294 68.2757H463.574V58.2503H443.294V46.9735H472.703V37.0169H432.323V91.847H473.775V81.8491H443.294V68.2344V68.2757ZM487.015 37.0169V91.8057H498.014V36.9757L487.015 37.0169ZM208.139 59.0892H183.007V36.9757H171.871V91.8882H183.007V69.5684H208.139V91.8882H219.276V36.9757H208.139V59.103V59.0892ZM270.874 36.9619H281.997V67.9456C281.997 83.6781 273.335 92.6996 258.239 92.6996C243.143 92.6996 234.715 83.8294 234.715 68.3857V37.0032H245.852V68.0281C245.852 77.2008 250.361 82.1104 258.404 82.1104C266.447 82.1104 270.874 77.3246 270.874 68.3582V36.9757V36.9619Z" fill="#1B8284"/>
<path d="M82.3538 86.0435C82.4415 86.1015 82.5443 86.1324 82.6494 86.1324C82.7545 86.1324 82.8573 86.1015 82.945 86.0435C89.2968 82.8668 115.763 69.4171 126.707 58.7042C130.961 55.0071 133.581 49.7765 133.993 44.1543C134.777 31.7773 122.266 20.1842 122.266 20.1842C106.421 40.26 92.9578 62.1071 82.1475 85.2872C82.1168 85.4108 82.1184 85.5402 82.1521 85.6631C82.1858 85.7859 82.2505 85.898 82.34 85.9886M143.164 57.1089C143.164 57.1089 105.438 77.3934 85.9146 90.568C85.8144 90.6357 85.7378 90.7332 85.6959 90.8467C85.6539 90.9602 85.6487 91.084 85.6809 91.2006C85.6809 91.2006 85.8734 91.5582 86.1484 91.5582C93.1326 91.5582 119.557 91.5582 120.259 91.4757C122.882 91.2861 125.46 90.6923 127.903 89.7154C134.294 87.2046 139.427 82.2581 142.174 75.9632C144.786 69.9882 145.133 63.2662 143.15 57.0539M86.9045 94.8587C86.7993 94.8789 86.6994 94.9211 86.6117 94.9828C86.524 95.0444 86.4504 95.124 86.3958 95.2163C86.3691 95.3196 86.369 95.428 86.3954 95.5314C86.4219 95.6348 86.474 95.7298 86.5471 95.8076C90.7816 98.8606 103.678 107.882 109.92 109.56C109.92 109.56 121.413 113.479 131.367 96.344L86.9458 94.8175L86.9045 94.8587ZM76.4007 82.4817C76.5164 82.5267 76.6447 82.5278 76.7612 82.4847C76.8776 82.4417 76.9744 82.3574 77.0331 82.248C81.2676 76.1282 100.516 47.5649 104.393 30.2233C104.393 30.2233 106.51 21.8345 104.475 16.0998C103.406 12.746 101.497 9.72163 98.9292 7.31447C96.3615 4.9073 93.2206 3.19745 89.8055 2.34763C89.8055 2.34763 86.4371 1.48124 82.8212 0.972412C82.8212 0.972412 69.6501 17.9151 76.0707 81.9317C76.0581 82.0397 76.0826 82.1489 76.14 82.2413C76.1974 82.3337 76.2844 82.4039 76.3869 82.4405M61.6759 1.01367C59.7512 1.16494 54.5404 2.38889 54.5404 2.38889C51.1481 3.25734 48.0326 4.97553 45.4877 7.38153C42.9429 9.78753 41.0524 12.8021 39.9945 16.1411C37.836 22.8522 39.9945 30.2646 39.9945 30.2646C43.9128 47.6749 63.202 76.3483 67.3678 82.358C67.6428 82.6743 67.8765 82.5505 67.8765 82.5505C67.9966 82.5157 68.1025 82.4437 68.1791 82.3448C68.2557 82.246 68.299 82.1254 68.3027 82.0004C74.7371 17.9839 61.6347 1.04116 61.6347 1.04116M58.7475 91.2556C58.9812 90.8981 58.5963 90.5955 58.5963 90.5955C39.1146 77.4209 1.30606 57.1777 1.30606 57.1777C0.0566529 61.0183 -0.290981 65.0952 0.290136 69.092C0.871252 73.0888 2.36548 76.8978 4.65682 80.2233C6.94815 83.5488 9.97492 86.3013 13.5021 88.2671C17.0293 90.2329 20.962 91.3591 24.9948 91.5582C25.6547 91.682 51.3783 91.5582 58.2801 91.5582C58.4654 91.5301 58.6329 91.4316 58.7475 91.2831M58.0876 95.2438C58.044 95.1232 57.9632 95.0197 57.857 94.948C57.7507 94.8763 57.6245 94.8402 57.4964 94.845L13.1023 96.3715C17.9281 104.967 26.0397 111.623 34.4676 109.587C40.3107 108.13 53.4818 98.9156 57.8401 95.8351C58.1976 95.5601 58.0738 95.3263 58.0738 95.285M62.1984 86.1123C62.276 86.0466 62.3301 85.9573 62.3525 85.858C62.3748 85.7588 62.3642 85.6549 62.3221 85.5622C51.5296 62.2878 38.0465 40.3593 22.1489 20.2255C22.1489 20.2255 9.5277 32.2312 10.4214 44.2644C10.6327 47.0391 11.3886 49.7451 12.646 52.2275C13.9034 54.7099 15.6375 56.92 17.7493 58.7317C28.7482 69.4722 55.4341 83.0456 61.621 86.1536C61.7208 86.1929 61.83 86.2021 61.9351 86.1802C62.0401 86.1582 62.1364 86.1059 62.2121 86.0298" fill="#1B8284"/>
</svg>
