<svg width="211" height="26" viewBox="0 0 211 26" fill="none" xmlns="http://www.w3.org/2000/svg">
<path d="M47.2016 0.499998H57.7016V4H51.0516V10.475H56.3366V13.975H51.0516V21.5H57.7016V25H47.2016V0.499998ZM59.9164 0.499998H63.7664V21.5H70.1014V25H59.9164V0.499998ZM71.9477 0.499998H82.4477V4H75.7977V10.475H81.0827V13.975H75.7977V21.5H82.4477V25H71.9477V0.499998ZM84.6625 0.499998H90.3325C92.2459 0.499998 93.6809 1.01333 94.6375 2.04C95.5942 3.06667 96.0725 4.57167 96.0725 6.555V8.97C96.0725 10.9533 95.5942 12.4583 94.6375 13.485C93.6809 14.5117 92.2459 15.025 90.3325 15.025H88.5125V25H84.6625V0.499998ZM90.3325 11.525C90.9625 11.525 91.4292 11.35 91.7325 11C92.0592 10.65 92.2225 10.055 92.2225 9.215V6.31C92.2225 5.47 92.0592 4.875 91.7325 4.525C91.4292 4.175 90.9625 4 90.3325 4H88.5125V11.525H90.3325ZM98.1635 0.499998H102.014V10.475H106.144V0.499998H109.994V25H106.144V13.975H102.014V25H98.1635V0.499998ZM115.836 0.499998H121.051L125.041 25H121.191L120.491 20.135V20.205H116.116L115.416 25H111.846L115.836 0.499998ZM120.036 16.88L118.321 4.77H118.251L116.571 16.88H120.036ZM126.909 0.499998H131.739L135.484 15.165H135.554V0.499998H138.984V25H135.029L130.409 7.115H130.339V25H126.909V0.499998ZM147.305 25.35C145.438 25.35 144.015 24.825 143.035 23.775C142.055 22.7017 141.565 21.1733 141.565 19.19V6.31C141.565 4.32667 142.055 2.81 143.035 1.76C144.015 0.686665 145.438 0.149999 147.305 0.149999C149.172 0.149999 150.595 0.686665 151.575 1.76C152.555 2.81 153.045 4.32667 153.045 6.31V8.41H149.405V6.065C149.405 4.455 148.74 3.65 147.41 3.65C146.08 3.65 145.415 4.455 145.415 6.065V19.47C145.415 21.0567 146.08 21.85 147.41 21.85C148.74 21.85 149.405 21.0567 149.405 19.47V14.675H147.48V11.175H153.045V19.19C153.045 21.1733 152.555 22.7017 151.575 23.775C150.595 24.825 149.172 25.35 147.305 25.35ZM155.517 0.499998H166.017V4H159.367V10.475H164.652V13.975H159.367V21.5H166.017V25H155.517V0.499998ZM168.232 0.499998H172.082V21.5H178.417V25H168.232V0.499998ZM180.263 0.499998H184.113V25H180.263V0.499998ZM192.002 25.35C190.135 25.35 188.723 24.825 187.767 23.775C186.81 22.7017 186.332 21.1733 186.332 19.19V17.79H189.972V19.47C189.972 21.0567 190.637 21.85 191.967 21.85C192.62 21.85 193.11 21.6633 193.437 21.29C193.787 20.8933 193.962 20.2633 193.962 19.4C193.962 18.3733 193.728 17.475 193.262 16.705C192.795 15.9117 191.932 14.9667 190.672 13.87C189.085 12.47 187.977 11.21 187.347 10.09C186.717 8.94667 186.402 7.66333 186.402 6.24C186.402 4.30333 186.892 2.81 187.872 1.76C188.852 0.686665 190.275 0.149999 192.142 0.149999C193.985 0.149999 195.373 0.686665 196.307 1.76C197.263 2.81 197.742 4.32667 197.742 6.31V7.325H194.102V6.065C194.102 5.225 193.938 4.61833 193.612 4.245C193.285 3.84833 192.807 3.65 192.177 3.65C190.893 3.65 190.252 4.43167 190.252 5.995C190.252 6.88167 190.485 7.71 190.952 8.48C191.442 9.25 192.317 10.1833 193.577 11.28C195.187 12.68 196.295 13.9517 196.902 15.095C197.508 16.2383 197.812 17.58 197.812 19.12C197.812 21.1267 197.31 22.6667 196.307 23.74C195.327 24.8133 193.892 25.35 192.002 25.35ZM203.029 4H199.004V0.499998H210.904V4H206.879V25H203.029V4Z" fill="#F5F3E1"/>
<path d="M4.445 4H5.445V3H4.445V4ZM0.42 4H-0.58V5H0.42V4ZM0.42 0.499998V-0.500002H-0.58V0.499998H0.42ZM12.32 0.499998H13.32V-0.500002H12.32V0.499998ZM12.32 4V5H13.32V4H12.32ZM8.295 4V3H7.295V4H8.295ZM8.295 25V26H9.295V25H8.295ZM4.445 25H3.445V26H4.445V25ZM4.445 3H0.42V5H4.445V3ZM1.42 4V0.499998H-0.58V4H1.42ZM0.42 1.5H12.32V-0.500002H0.42V1.5ZM11.32 0.499998V4H13.32V0.499998H11.32ZM12.32 3H8.295V5H12.32V3ZM7.295 4V25H9.295V4H7.295ZM8.295 24H4.445V26H8.295V24ZM5.445 25V4H3.445V25H5.445ZM14.184 0.499998V-0.500002H13.184V0.499998H14.184ZM18.034 0.499998H19.034V-0.500002H18.034V0.499998ZM18.034 10.475H17.034V11.475H18.034V10.475ZM22.164 10.475V11.475H23.164V10.475H22.164ZM22.164 0.499998V-0.500002H21.164V0.499998H22.164ZM26.014 0.499998H27.014V-0.500002H26.014V0.499998ZM26.014 25V26H27.014V25H26.014ZM22.164 25H21.164V26H22.164V25ZM22.164 13.975H23.164V12.975H22.164V13.975ZM18.034 13.975V12.975H17.034V13.975H18.034ZM18.034 25V26H19.034V25H18.034ZM14.184 25H13.184V26H14.184V25ZM14.184 1.5H18.034V-0.500002H14.184V1.5ZM17.034 0.499998V10.475H19.034V0.499998H17.034ZM18.034 11.475H22.164V9.475H18.034V11.475ZM23.164 10.475V0.499998H21.164V10.475H23.164ZM22.164 1.5H26.014V-0.500002H22.164V1.5ZM25.014 0.499998V25H27.014V0.499998H25.014ZM26.014 24H22.164V26H26.014V24ZM23.164 25V13.975H21.164V25H23.164ZM22.164 12.975H18.034V14.975H22.164V12.975ZM17.034 13.975V25H19.034V13.975H17.034ZM18.034 24H14.184V26H18.034V24ZM15.184 25V0.499998H13.184V25H15.184ZM28.8813 0.499998V-0.500002H27.8813V0.499998H28.8813ZM39.3813 0.499998H40.3813V-0.500002H39.3813V0.499998ZM39.3813 4V5H40.3813V4H39.3813ZM32.7313 4V3H31.7313V4H32.7313ZM32.7313 10.475H31.7313V11.475H32.7313V10.475ZM38.0163 10.475H39.0163V9.475H38.0163V10.475ZM38.0163 13.975V14.975H39.0163V13.975H38.0163ZM32.7313 13.975V12.975H31.7313V13.975H32.7313ZM32.7313 21.5H31.7313V22.5H32.7313V21.5ZM39.3813 21.5H40.3813V20.5H39.3813V21.5ZM39.3813 25V26H40.3813V25H39.3813ZM28.8813 25H27.8813V26H28.8813V25ZM28.8813 1.5H39.3813V-0.500002H28.8813V1.5ZM38.3813 0.499998V4H40.3813V0.499998H38.3813ZM39.3813 3H32.7313V5H39.3813V3ZM31.7313 4V10.475H33.7313V4H31.7313ZM32.7313 11.475H38.0163V9.475H32.7313V11.475ZM37.0163 10.475V13.975H39.0163V10.475H37.0163ZM38.0163 12.975H32.7313V14.975H38.0163V12.975ZM31.7313 13.975V21.5H33.7313V13.975H31.7313ZM32.7313 22.5H39.3813V20.5H32.7313V22.5ZM38.3813 21.5V25H40.3813V21.5H38.3813ZM39.3813 24H28.8813V26H39.3813V24ZM29.8813 25V0.499998H27.8813V25H29.8813ZM47.2016 0.499998V-0.500002H46.2016V0.499998H47.2016ZM57.7016 0.499998H58.7016V-0.500002H57.7016V0.499998ZM57.7016 4V5H58.7016V4H57.7016ZM51.0516 4V3H50.0516V4H51.0516ZM51.0516 10.475H50.0516V11.475H51.0516V10.475ZM56.3366 10.475H57.3366V9.475H56.3366V10.475ZM56.3366 13.975V14.975H57.3366V13.975H56.3366ZM51.0516 13.975V12.975H50.0516V13.975H51.0516ZM51.0516 21.5H50.0516V22.5H51.0516V21.5ZM57.7016 21.5H58.7016V20.5H57.7016V21.5ZM57.7016 25V26H58.7016V25H57.7016ZM47.2016 25H46.2016V26H47.2016V25ZM47.2016 1.5H57.7016V-0.500002H47.2016V1.5ZM56.7016 0.499998V4H58.7016V0.499998H56.7016ZM57.7016 3H51.0516V5H57.7016V3ZM50.0516 4V10.475H52.0516V4H50.0516ZM51.0516 11.475H56.3366V9.475H51.0516V11.475ZM55.3366 10.475V13.975H57.3366V10.475H55.3366ZM56.3366 12.975H51.0516V14.975H56.3366V12.975ZM50.0516 13.975V21.5H52.0516V13.975H50.0516ZM51.0516 22.5H57.7016V20.5H51.0516V22.5ZM56.7016 21.5V25H58.7016V21.5H56.7016ZM57.7016 24H47.2016V26H57.7016V24ZM48.2016 25V0.499998H46.2016V25H48.2016ZM59.9164 0.499998V-0.500002H58.9164V0.499998H59.9164ZM63.7664 0.499998H64.7664V-0.500002H63.7664V0.499998ZM63.7664 21.5H62.7664V22.5H63.7664V21.5ZM70.1014 21.5H71.1014V20.5H70.1014V21.5ZM70.1014 25V26H71.1014V25H70.1014ZM59.9164 25H58.9164V26H59.9164V25ZM59.9164 1.5H63.7664V-0.500002H59.9164V1.5ZM62.7664 0.499998V21.5H64.7664V0.499998H62.7664ZM63.7664 22.5H70.1014V20.5H63.7664V22.5ZM69.1014 21.5V25H71.1014V21.5H69.1014ZM70.1014 24H59.9164V26H70.1014V24ZM60.9164 25V0.499998H58.9164V25H60.9164ZM71.9477 0.499998V-0.500002H70.9477V0.499998H71.9477ZM82.4477 0.499998H83.4477V-0.500002H82.4477V0.499998ZM82.4477 4V5H83.4477V4H82.4477ZM75.7977 4V3H74.7977V4H75.7977ZM75.7977 10.475H74.7977V11.475H75.7977V10.475ZM81.0827 10.475H82.0827V9.475H81.0827V10.475ZM81.0827 13.975V14.975H82.0827V13.975H81.0827ZM75.7977 13.975V12.975H74.7977V13.975H75.7977ZM75.7977 21.5H74.7977V22.5H75.7977V21.5ZM82.4477 21.5H83.4477V20.5H82.4477V21.5ZM82.4477 25V26H83.4477V25H82.4477ZM71.9477 25H70.9477V26H71.9477V25ZM71.9477 1.5H82.4477V-0.500002H71.9477V1.5ZM81.4477 0.499998V4H83.4477V0.499998H81.4477ZM82.4477 3H75.7977V5H82.4477V3ZM74.7977 4V10.475H76.7977V4H74.7977ZM75.7977 11.475H81.0827V9.475H75.7977V11.475ZM80.0827 10.475V13.975H82.0827V10.475H80.0827ZM81.0827 12.975H75.7977V14.975H81.0827V12.975ZM74.7977 13.975V21.5H76.7977V13.975H74.7977ZM75.7977 22.5H82.4477V20.5H75.7977V22.5ZM81.4477 21.5V25H83.4477V21.5H81.4477ZM82.4477 24H71.9477V26H82.4477V24ZM72.9477 25V0.499998H70.9477V25H72.9477ZM84.6625 0.499998V-0.500002H83.6625V0.499998H84.6625ZM94.6375 2.04L93.9059 2.72172L93.9059 2.72173L94.6375 2.04ZM94.6375 13.485L93.9059 12.8033L93.9059 12.8033L94.6375 13.485ZM88.5125 15.025V14.025H87.5125V15.025H88.5125ZM88.5125 25V26H89.5125V25H88.5125ZM84.6625 25H83.6625V26H84.6625V25ZM91.7325 11L91.0015 10.3177L90.9889 10.3311L90.9769 10.3451L91.7325 11ZM91.7325 4.525L90.9769 5.17993L90.9889 5.19385L91.0015 5.20732L91.7325 4.525ZM88.5125 4V3H87.5125V4H88.5125ZM88.5125 11.525H87.5125V12.525H88.5125V11.525ZM84.6625 1.5H90.3325V-0.500002H84.6625V1.5ZM90.3325 1.5C92.0729 1.5 93.1995 1.96361 93.9059 2.72172L95.3691 1.35827C94.1622 0.0630577 92.4188 -0.500002 90.3325 -0.500002V1.5ZM93.9059 2.72173C94.63 3.49879 95.0725 4.72003 95.0725 6.555H97.0725C97.0725 4.4233 96.5584 2.63454 95.3691 1.35827L93.9059 2.72173ZM95.0725 6.555V8.97H97.0725V6.555H95.0725ZM95.0725 8.97C95.0725 10.805 94.63 12.0262 93.9059 12.8033L95.3691 14.1667C96.5584 12.8905 97.0725 11.1017 97.0725 8.97H95.0725ZM93.9059 12.8033C93.1995 13.5614 92.0729 14.025 90.3325 14.025V16.025C92.4188 16.025 94.1622 15.4619 95.3691 14.1667L93.9059 12.8033ZM90.3325 14.025H88.5125V16.025H90.3325V14.025ZM87.5125 15.025V25H89.5125V15.025H87.5125ZM88.5125 24H84.6625V26H88.5125V24ZM85.6625 25V0.499998H83.6625V25H85.6625ZM90.3325 12.525C91.1429 12.525 91.9333 12.2952 92.4882 11.6549L90.9769 10.3451C90.9251 10.4048 90.7822 10.525 90.3325 10.525V12.525ZM92.4636 11.6823C93.0537 11.05 93.2225 10.1334 93.2225 9.215H91.2225C91.2225 9.97656 91.0647 10.25 91.0015 10.3177L92.4636 11.6823ZM93.2225 9.215V6.31H91.2225V9.215H93.2225ZM93.2225 6.31C93.2225 5.39156 93.0537 4.47496 92.4636 3.84268L91.0015 5.20732C91.0647 5.27503 91.2225 5.54843 91.2225 6.31H93.2225ZM92.4882 3.87007C91.9333 3.22976 91.1429 3 90.3325 3V5C90.7822 5 90.9251 5.12023 90.9769 5.17993L92.4882 3.87007ZM90.3325 3H88.5125V5H90.3325V3ZM87.5125 4V11.525H89.5125V4H87.5125ZM88.5125 12.525H90.3325V10.525H88.5125V12.525ZM98.1635 0.499998V-0.500002H97.1635V0.499998H98.1635ZM102.014 0.499998H103.014V-0.500002H102.014V0.499998ZM102.014 10.475H101.014V11.475H102.014V10.475ZM106.144 10.475V11.475H107.144V10.475H106.144ZM106.144 0.499998V-0.500002H105.144V0.499998H106.144ZM109.994 0.499998H110.994V-0.500002H109.994V0.499998ZM109.994 25V26H110.994V25H109.994ZM106.144 25H105.144V26H106.144V25ZM106.144 13.975H107.144V12.975H106.144V13.975ZM102.014 13.975V12.975H101.014V13.975H102.014ZM102.014 25V26H103.014V25H102.014ZM98.1635 25H97.1635V26H98.1635V25ZM98.1635 1.5H102.014V-0.500002H98.1635V1.5ZM101.014 0.499998V10.475H103.014V0.499998H101.014ZM102.014 11.475H106.144V9.475H102.014V11.475ZM107.144 10.475V0.499998H105.144V10.475H107.144ZM106.144 1.5H109.994V-0.500002H106.144V1.5ZM108.994 0.499998V25H110.994V0.499998H108.994ZM109.994 24H106.144V26H109.994V24ZM107.144 25V13.975H105.144V25H107.144ZM106.144 12.975H102.014V14.975H106.144V12.975ZM101.014 13.975V25H103.014V13.975H101.014ZM102.014 24H98.1635V26H102.014V24ZM99.1635 25V0.499998H97.1635V25H99.1635ZM115.836 0.499998V-0.500002H114.985L114.849 0.339259L115.836 0.499998ZM121.051 0.499998L122.038 0.339259L121.901 -0.500002H121.051V0.499998ZM125.041 25V26H126.217L126.028 24.8393L125.041 25ZM121.191 25L120.201 25.1424L120.324 26H121.191V25ZM120.491 20.135L121.481 19.9926L119.491 20.135H120.491ZM120.491 20.205V21.205H121.491V20.205H120.491ZM116.116 20.205V19.205H115.251L115.126 20.0605L116.116 20.205ZM115.416 25V26H116.28L116.405 25.1445L115.416 25ZM111.846 25L110.859 24.8393L110.67 26H111.846V25ZM120.036 16.88V17.88H121.187L121.026 16.7398L120.036 16.88ZM118.321 4.77L119.311 4.62978L119.189 3.77H118.321V4.77ZM118.251 4.77V3.77H117.38L117.26 4.63259L118.251 4.77ZM116.571 16.88L115.58 16.7426L115.422 17.88H116.571V16.88ZM115.836 1.5H121.051V-0.500002H115.836V1.5ZM120.064 0.660738L124.054 25.1607L126.028 24.8393L122.038 0.339259L120.064 0.660738ZM125.041 24H121.191V26H125.041V24ZM122.181 24.8576L121.481 19.9926L119.501 20.2774L120.201 25.1424L122.181 24.8576ZM119.491 20.135V20.205H121.491V20.135H119.491ZM120.491 19.205H116.116V21.205H120.491V19.205ZM115.126 20.0605L114.426 24.8555L116.405 25.1445L117.105 20.3495L115.126 20.0605ZM115.416 24H111.846V26H115.416V24ZM112.833 25.1607L116.823 0.660738L114.849 0.339259L110.859 24.8393L112.833 25.1607ZM121.026 16.7398L119.311 4.62978L117.331 4.91022L119.046 17.0202L121.026 16.7398ZM118.321 3.77H118.251V5.77H118.321V3.77ZM117.26 4.63259L115.58 16.7426L117.561 17.0174L119.241 4.90741L117.26 4.63259ZM116.571 17.88H120.036V15.88H116.571V17.88ZM126.909 0.499998V-0.500002H125.909V0.499998H126.909ZM131.739 0.499998L132.708 0.252569L132.515 -0.500002H131.739V0.499998ZM135.484 15.165L134.515 15.4124L134.707 16.165H135.484V15.165ZM135.554 15.165V16.165H136.554V15.165H135.554ZM135.554 0.499998V-0.500002H134.554V0.499998H135.554ZM138.984 0.499998H139.984V-0.500002H138.984V0.499998ZM138.984 25V26H139.984V25H138.984ZM135.029 25L134.06 25.2501L134.254 26H135.029V25ZM130.409 7.115L131.377 6.86489L131.183 6.115H130.409V7.115ZM130.339 7.115V6.115H129.339V7.115H130.339ZM130.339 25V26H131.339V25H130.339ZM126.909 25H125.909V26H126.909V25ZM126.909 1.5H131.739V-0.500002H126.909V1.5ZM130.77 0.747428L134.515 15.4124L136.453 14.9176L132.708 0.252569L130.77 0.747428ZM135.484 16.165H135.554V14.165H135.484V16.165ZM136.554 15.165V0.499998H134.554V15.165H136.554ZM135.554 1.5H138.984V-0.500002H135.554V1.5ZM137.984 0.499998V25H139.984V0.499998H137.984ZM138.984 24H135.029V26H138.984V24ZM135.997 24.7499L131.377 6.86489L129.44 7.36511L134.06 25.2501L135.997 24.7499ZM130.409 6.115H130.339V8.115H130.409V6.115ZM129.339 7.115V25H131.339V7.115H129.339ZM130.339 24H126.909V26H130.339V24ZM127.909 25V0.499998H125.909V25H127.909ZM143.035 23.775L142.297 24.4493L142.304 24.4573L143.035 23.775ZM143.035 1.76L143.766 2.44236L143.774 2.43427L143.035 1.76ZM151.575 1.76L150.837 2.43431L150.844 2.44232L151.575 1.76ZM153.045 8.41V9.41H154.045V8.41H153.045ZM149.405 8.41H148.405V9.41H149.405V8.41ZM149.405 14.675H150.405V13.675H149.405V14.675ZM147.48 14.675H146.48V15.675H147.48V14.675ZM147.48 11.175V10.175H146.48V11.175H147.48ZM153.045 11.175H154.045V10.175H153.045V11.175ZM151.575 23.775L152.306 24.4574L152.314 24.4493L151.575 23.775ZM147.305 24.35C145.628 24.35 144.505 23.8839 143.766 23.0927L142.304 24.4573C143.526 25.7661 145.249 26.35 147.305 26.35V24.35ZM143.774 23.1007C143.015 22.2698 142.565 21.0158 142.565 19.19H140.565C140.565 21.3309 141.095 23.1335 142.297 24.4493L143.774 23.1007ZM142.565 19.19V6.31H140.565V19.19H142.565ZM142.565 6.31C142.565 4.48256 143.016 3.24648 143.766 2.44232L142.304 1.07768C141.095 2.37352 140.565 4.17077 140.565 6.31H142.565ZM143.774 2.43427C144.514 1.62377 145.635 1.15 147.305 1.15V-0.850001C145.242 -0.850001 143.517 -0.250438 142.297 1.08573L143.774 2.43427ZM147.305 1.15C148.976 1.15 150.097 1.62377 150.837 2.43427L152.314 1.08573C151.094 -0.250438 149.368 -0.850001 147.305 -0.850001V1.15ZM150.844 2.44232C151.595 3.24648 152.045 4.48256 152.045 6.31H154.045C154.045 4.17077 153.516 2.37352 152.306 1.07768L150.844 2.44232ZM152.045 6.31V8.41H154.045V6.31H152.045ZM153.045 7.41H149.405V9.41H153.045V7.41ZM150.405 8.41V6.065H148.405V8.41H150.405ZM150.405 6.065C150.405 5.14739 150.22 4.27321 149.677 3.61687C149.105 2.92394 148.285 2.65 147.41 2.65V4.65C147.865 4.65 148.043 4.77856 148.135 4.89063C148.258 5.03929 148.405 5.37261 148.405 6.065H150.405ZM147.41 2.65C146.535 2.65 145.715 2.92394 145.143 3.61687C144.601 4.27321 144.415 5.14739 144.415 6.065H146.415C146.415 5.37261 146.562 5.03929 146.685 4.89063C146.777 4.77856 146.955 4.65 147.41 4.65V2.65ZM144.415 6.065V19.47H146.415V6.065H144.415ZM144.415 19.47C144.415 20.3787 144.602 21.2465 145.148 21.8974C145.722 22.5821 146.54 22.85 147.41 22.85V20.85C146.95 20.85 146.771 20.7212 146.68 20.6126C146.561 20.4702 146.415 20.148 146.415 19.47H144.415ZM147.41 22.85C148.28 22.85 149.099 22.5821 149.673 21.8974C150.218 21.2465 150.405 20.3787 150.405 19.47H148.405C148.405 20.148 148.259 20.4702 148.14 20.6126C148.049 20.7212 147.87 20.85 147.41 20.85V22.85ZM150.405 19.47V14.675H148.405V19.47H150.405ZM149.405 13.675H147.48V15.675H149.405V13.675ZM148.48 14.675V11.175H146.48V14.675H148.48ZM147.48 12.175H153.045V10.175H147.48V12.175ZM152.045 11.175V19.19H154.045V11.175H152.045ZM152.045 19.19C152.045 21.0158 151.595 22.2698 150.837 23.1007L152.314 24.4493C153.515 23.1335 154.045 21.3309 154.045 19.19H152.045ZM150.844 23.0927C150.106 23.8839 148.982 24.35 147.305 24.35V26.35C149.361 26.35 151.085 25.7661 152.306 24.4573L150.844 23.0927ZM155.517 0.499998V-0.500002H154.517V0.499998H155.517ZM166.017 0.499998H167.017V-0.500002H166.017V0.499998ZM166.017 4V5H167.017V4H166.017ZM159.367 4V3H158.367V4H159.367ZM159.367 10.475H158.367V11.475H159.367V10.475ZM164.652 10.475H165.652V9.475H164.652V10.475ZM164.652 13.975V14.975H165.652V13.975H164.652ZM159.367 13.975V12.975H158.367V13.975H159.367ZM159.367 21.5H158.367V22.5H159.367V21.5ZM166.017 21.5H167.017V20.5H166.017V21.5ZM166.017 25V26H167.017V25H166.017ZM155.517 25H154.517V26H155.517V25ZM155.517 1.5H166.017V-0.500002H155.517V1.5ZM165.017 0.499998V4H167.017V0.499998H165.017ZM166.017 3H159.367V5H166.017V3ZM158.367 4V10.475H160.367V4H158.367ZM159.367 11.475H164.652V9.475H159.367V11.475ZM163.652 10.475V13.975H165.652V10.475H163.652ZM164.652 12.975H159.367V14.975H164.652V12.975ZM158.367 13.975V21.5H160.367V13.975H158.367ZM159.367 22.5H166.017V20.5H159.367V22.5ZM165.017 21.5V25H167.017V21.5H165.017ZM166.017 24H155.517V26H166.017V24ZM156.517 25V0.499998H154.517V25H156.517ZM168.232 0.499998V-0.500002H167.232V0.499998H168.232ZM172.082 0.499998H173.082V-0.500002H172.082V0.499998ZM172.082 21.5H171.082V22.5H172.082V21.5ZM178.417 21.5H179.417V20.5H178.417V21.5ZM178.417 25V26H179.417V25H178.417ZM168.232 25H167.232V26H168.232V25ZM168.232 1.5H172.082V-0.500002H168.232V1.5ZM171.082 0.499998V21.5H173.082V0.499998H171.082ZM172.082 22.5H178.417V20.5H172.082V22.5ZM177.417 21.5V25H179.417V21.5H177.417ZM178.417 24H168.232V26H178.417V24ZM169.232 25V0.499998H167.232V25H169.232ZM180.263 0.499998V-0.500002H179.263V0.499998H180.263ZM184.113 0.499998H185.113V-0.500002H184.113V0.499998ZM184.113 25V26H185.113V25H184.113ZM180.263 25H179.263V26H180.263V25ZM180.263 1.5H184.113V-0.500002H180.263V1.5ZM183.113 0.499998V25H185.113V0.499998H183.113ZM184.113 24H180.263V26H184.113V24ZM181.263 25V0.499998H179.263V25H181.263ZM187.767 23.775L187.02 24.4404L187.027 24.4485L187.767 23.775ZM186.332 17.79V16.79H185.332V17.79H186.332ZM189.972 17.79H190.972V16.79H189.972V17.79ZM193.437 21.29L192.687 20.6284L192.684 20.6315L193.437 21.29ZM193.262 16.705L192.4 17.2121L192.406 17.2233L193.262 16.705ZM190.672 13.87L190.01 14.6199L190.015 14.6243L190.672 13.87ZM187.347 10.09L186.471 10.5726L186.475 10.5803L187.347 10.09ZM187.872 1.76L188.603 2.44236L188.61 2.43427L187.872 1.76ZM196.307 1.76L195.552 2.41618L195.56 2.42492L195.567 2.43349L196.307 1.76ZM197.742 7.325V8.325H198.742V7.325H197.742ZM194.102 7.325H193.102V8.325H194.102V7.325ZM193.612 4.245L192.84 4.88071L192.849 4.89225L192.859 4.9035L193.612 4.245ZM190.952 8.48L190.096 8.9983L190.102 9.00765L190.108 9.01687L190.952 8.48ZM193.577 11.28L192.92 12.0343L192.92 12.0346L193.577 11.28ZM196.902 15.095L196.018 15.5637L196.018 15.5637L196.902 15.095ZM196.307 23.74L195.576 23.0571L195.568 23.0657L196.307 23.74ZM192.002 24.35C190.323 24.35 189.218 23.8834 188.506 23.1015L187.027 24.4485C188.228 25.7666 189.947 26.35 192.002 26.35V24.35ZM188.513 23.1096C187.773 22.2789 187.332 21.0214 187.332 19.19H185.332C185.332 21.3253 185.847 23.1244 187.02 24.4404L188.513 23.1096ZM187.332 19.19V17.79H185.332V19.19H187.332ZM186.332 18.79H189.972V16.79H186.332V18.79ZM188.972 17.79V19.47H190.972V17.79H188.972ZM188.972 19.47C188.972 20.3787 189.158 21.2465 189.704 21.8974C190.278 22.5821 191.097 22.85 191.967 22.85V20.85C191.507 20.85 191.328 20.7212 191.237 20.6126C191.117 20.4702 190.972 20.148 190.972 19.47H188.972ZM191.967 22.85C192.811 22.85 193.617 22.6025 194.189 21.9485L192.684 20.6315C192.603 20.7242 192.428 20.85 191.967 20.85V22.85ZM194.186 21.9516C194.773 21.2872 194.962 20.3627 194.962 19.4H192.962C192.962 20.164 192.8 20.4995 192.687 20.6284L194.186 21.9516ZM194.962 19.4C194.962 18.2168 194.691 17.134 194.117 16.1867L192.406 17.2233C192.766 17.816 192.962 18.5299 192.962 19.4H194.962ZM194.123 16.198C193.575 15.2648 192.614 14.2354 191.328 13.1157L190.015 14.6243C191.249 15.698 192.015 16.5586 192.4 17.212L194.123 16.198ZM191.333 13.1202C189.783 11.7528 188.769 10.5793 188.218 9.59974L186.475 10.5803C187.184 11.8407 188.386 13.1872 190.01 14.6198L191.333 13.1202ZM188.222 9.60739C187.681 8.62499 187.402 7.5102 187.402 6.24H185.402C185.402 7.81646 185.752 9.26834 186.471 10.5726L188.222 9.60739ZM187.402 6.24C187.402 4.46676 187.848 3.25052 188.603 2.44232L187.14 1.07768C185.935 2.36948 185.402 4.1399 185.402 6.24H187.402ZM188.61 2.43427C189.35 1.62377 190.471 1.15 192.142 1.15V-0.850001C190.079 -0.850001 188.353 -0.250438 187.133 1.08573L188.61 2.43427ZM192.142 1.15C193.787 1.15 194.861 1.62191 195.552 2.41618L197.061 1.10382C195.885 -0.248577 194.183 -0.850001 192.142 -0.850001V1.15ZM195.567 2.43349C196.3 3.23736 196.742 4.47689 196.742 6.31H198.742C198.742 4.17644 198.227 2.38264 197.046 1.08651L195.567 2.43349ZM196.742 6.31V7.325H198.742V6.31H196.742ZM197.742 6.325H194.102V8.325H197.742V6.325ZM195.102 7.325V6.065H193.102V7.325H195.102ZM195.102 6.065C195.102 5.13751 194.929 4.23206 194.364 3.58649L192.859 4.9035C192.947 5.0046 193.102 5.31249 193.102 6.065H195.102ZM194.383 3.60929C193.824 2.93026 193.031 2.65 192.177 2.65V4.65C192.582 4.65 192.745 4.76641 192.84 4.88071L194.383 3.60929ZM192.177 2.65C191.323 2.65 190.52 2.91951 189.96 3.60176C189.431 4.24622 189.252 5.10188 189.252 5.995H191.252C191.252 5.32479 191.393 5.00794 191.506 4.87074C191.587 4.77133 191.747 4.65 192.177 4.65V2.65ZM189.252 5.995C189.252 7.06738 189.536 8.07456 190.096 8.9983L191.807 7.9617C191.433 7.34544 191.252 6.69596 191.252 5.995H189.252ZM190.108 9.01687C190.676 9.90917 191.637 10.9176 192.92 12.0343L194.233 10.5257C192.996 9.44905 192.207 8.59083 191.795 7.94312L190.108 9.01687ZM192.92 12.0346C194.49 13.3994 195.494 14.5766 196.018 15.5637L197.785 14.6263C197.095 13.3268 195.883 11.9606 194.233 10.5254L192.92 12.0346ZM196.018 15.5637C196.535 16.5376 196.812 17.7125 196.812 19.12H198.812C198.812 17.4475 198.481 15.939 197.785 14.6263L196.018 15.5637ZM196.812 19.12C196.812 20.9671 196.351 22.2279 195.576 23.0571L197.037 24.4229C198.269 23.1055 198.812 21.2862 198.812 19.12H196.812ZM195.568 23.0657C194.83 23.8737 193.7 24.35 192.002 24.35V26.35C194.083 26.35 195.823 25.753 197.045 24.4143L195.568 23.0657ZM203.029 4H204.029V3H203.029V4ZM199.004 4H198.004V5H199.004V4ZM199.004 0.499998V-0.500002H198.004V0.499998H199.004ZM210.904 0.499998H211.904V-0.500002H210.904V0.499998ZM210.904 4V5H211.904V4H210.904ZM206.879 4V3H205.879V4H206.879ZM206.879 25V26H207.879V25H206.879ZM203.029 25H202.029V26H203.029V25ZM203.029 3H199.004V5H203.029V3ZM200.004 4V0.499998H198.004V4H200.004ZM199.004 1.5H210.904V-0.500002H199.004V1.5ZM209.904 0.499998V4H211.904V0.499998H209.904ZM210.904 3H206.879V5H210.904V3ZM205.879 4V25H207.879V4H205.879ZM206.879 24H203.029V26H206.879V24ZM204.029 25V4H202.029V25H204.029Z" fill="#F5F3E1"/>
</svg>
