<svg width="95" height="22" viewBox="0 0 95 22" fill="none" xmlns="http://www.w3.org/2000/svg">
<path d="M2.08279 19.9138V2.08621H17.1357C17.7108 2.08621 18.1771 1.61919 18.1771 1.0431C18.1771 0.467013 17.7108 0 17.1357 0H2.08279C0.932493 0 0 0.934031 0 2.08621V19.9138C0 21.066 0.932499 22 2.08279 22H19.8812C21.0314 22 21.9639 21.066 21.9639 19.9138V18.5862C21.9639 18.0101 21.4977 17.5431 20.9225 17.5431C20.3474 17.5431 19.8812 18.0101 19.8812 18.5862V19.9138H2.08279Z" fill="#F5F3E1"/>
<path fill-rule="evenodd" clip-rule="evenodd" d="M9.13962 16.1805C9.21536 16.204 9.2948 16.2158 9.37473 16.2154C9.50262 16.2154 9.62844 16.1857 9.74049 16.1289C9.85254 16.0721 9.94717 15.9901 10.0156 15.8906C10.0459 15.8383 13.0683 11.5568 20.4401 11.2984V14.8744C20.44 15.0133 20.4848 15.149 20.5689 15.2643C20.6529 15.3796 20.7723 15.4692 20.9119 15.5217C21.0515 15.5741 21.205 15.5871 21.3526 15.5589C21.5002 15.5307 21.6354 15.4626 21.7408 15.3633L29.2265 8.32301C29.3654 8.19245 29.4433 8.01692 29.4433 7.8341C29.4433 7.65128 29.3654 7.47575 29.2265 7.34519L21.7408 0.30488C21.6354 0.205596 21.5002 0.137502 21.3526 0.109296C21.205 0.0810901 21.0515 0.094052 20.9119 0.146526C20.7723 0.199001 20.6529 0.288606 20.5689 0.403897C20.4848 0.519188 20.44 0.654931 20.4401 0.79379V4.43966C9.39748 5.23589 8.6163 15.3773 8.6163 15.482C8.60816 15.6352 8.655 15.7866 8.74958 15.9128C8.84416 16.0391 8.98122 16.1331 9.13962 16.1805ZM21.957 5.09271V2.50498L27.6338 7.83759L21.9456 13.1667V10.579C21.9456 10.3937 21.8657 10.2161 21.7235 10.0851C21.5812 9.95412 21.3883 9.88054 21.1872 9.88054H21.153C15.882 9.88054 12.5032 11.7244 10.6072 13.2331C11.5249 10.4148 14.0807 6.03211 21.2251 5.79115C21.4216 5.78481 21.6078 5.70844 21.7443 5.57814C21.8808 5.44783 21.9571 5.27379 21.957 5.09271Z" fill="#F5F3E1"/>
<path d="M49.4037 7.61465C49.1399 7.28086 48.7789 7.03747 48.3207 6.88448C47.8763 6.71759 47.4528 6.63414 47.0502 6.63414C46.8141 6.63414 46.5711 6.66195 46.3212 6.71759C46.0713 6.77322 45.8352 6.86362 45.613 6.98879C45.3909 7.10006 45.2104 7.25305 45.0715 7.44776C44.9327 7.64247 44.8632 7.87891 44.8632 8.15707C44.8632 8.60213 45.0299 8.94287 45.3631 9.17931C45.6964 9.41575 46.1129 9.61741 46.6128 9.78431C47.1265 9.95121 47.675 10.1181 48.2582 10.285C48.8414 10.4519 49.3829 10.6883 49.8828 10.9943C50.3965 11.3003 50.82 11.7106 51.1533 12.2252C51.4865 12.7398 51.6531 13.4282 51.6531 14.2905C51.6531 15.1111 51.5004 15.8274 51.1949 16.4393C50.8894 17.0513 50.4729 17.5589 49.9452 17.9622C49.4315 18.3656 48.8275 18.6646 48.1332 18.8593C47.4528 19.054 46.7308 19.1514 45.9671 19.1514C45.009 19.1514 44.1204 19.0053 43.3011 18.7133C42.4819 18.4212 41.7182 17.9483 41.0101 17.2947L43.322 14.7495C43.6552 15.1945 44.0718 15.5422 44.5716 15.7926C45.0854 16.029 45.613 16.1472 46.1546 16.1472C46.4184 16.1472 46.6822 16.1194 46.946 16.0638C47.2237 15.9943 47.4667 15.8969 47.675 15.7717C47.8972 15.6466 48.0707 15.4866 48.1957 15.2919C48.3345 15.0972 48.404 14.8677 48.404 14.6034C48.404 14.1584 48.2304 13.8107 47.8833 13.5603C47.55 13.2961 47.1265 13.0736 46.6128 12.8928C46.099 12.712 45.5436 12.5311 44.9465 12.3503C44.3495 12.1695 43.7941 11.9261 43.2803 11.6202C42.7666 11.3142 42.3361 10.9109 41.989 10.4102C41.6557 9.90948 41.4891 9.24885 41.4891 8.42828C41.4891 7.63552 41.6419 6.94011 41.9473 6.34207C42.2667 5.74402 42.6833 5.24333 43.197 4.84C43.7246 4.43667 44.3287 4.13764 45.009 3.94293C45.6894 3.73431 46.3906 3.63 47.1126 3.63C47.9458 3.63 48.7511 3.74822 49.5287 3.98465C50.3063 4.22109 51.0075 4.61747 51.6323 5.17379L49.4037 7.61465Z" fill="#F5F3E1"/>
<path d="M56.8022 3.00414V10.0138H56.8438C56.9132 9.81908 57.0313 9.62437 57.1979 9.42966C57.3645 9.23494 57.5659 9.06109 57.8019 8.9081C58.038 8.75512 58.3157 8.62994 58.635 8.53259C58.9544 8.43523 59.3015 8.38655 59.6764 8.38655C60.4679 8.38655 61.1066 8.51172 61.5926 8.76207C62.0786 8.99851 62.4535 9.3323 62.7173 9.76345C62.995 10.1946 63.1824 10.7022 63.2796 11.2864C63.3768 11.8705 63.4254 12.5033 63.4254 13.1848V18.7759H60.3013V13.8107C60.3013 13.5186 60.2874 13.2196 60.2596 12.9136C60.2457 12.5937 60.1832 12.3017 60.0721 12.0374C59.9749 11.7732 59.8153 11.5576 59.5931 11.3907C59.3848 11.2238 59.0793 11.1403 58.6767 11.1403C58.274 11.1403 57.9477 11.2168 57.6978 11.3698C57.4478 11.5089 57.2534 11.7036 57.1146 11.954C56.9896 12.1904 56.9063 12.4616 56.8646 12.7676C56.823 13.0736 56.8022 13.3934 56.8022 13.7272V18.7759H53.678V3.00414H56.8022Z" fill="#F5F3E1"/>
<path d="M71.9902 17.5033H71.9486C71.6015 18.0457 71.1363 18.4351 70.5531 18.6716C69.9838 18.908 69.3798 19.0262 68.7411 19.0262C68.269 19.0262 67.8108 18.9567 67.3665 18.8176C66.936 18.6924 66.5542 18.4977 66.2209 18.2334C65.8877 17.9692 65.6239 17.6424 65.4295 17.2529C65.2351 16.8635 65.1379 16.4115 65.1379 15.8969C65.1379 15.3128 65.242 14.819 65.4503 14.4157C65.6724 14.0124 65.964 13.6786 66.3251 13.4143C66.7 13.1501 67.1235 12.9484 67.5956 12.8093C68.0677 12.6563 68.5536 12.5451 69.0535 12.4755C69.5673 12.406 70.0741 12.3643 70.574 12.3503C71.0877 12.3364 71.5598 12.3295 71.9902 12.3295C71.9902 11.7732 71.7889 11.3351 71.3862 11.0152C70.9974 10.6814 70.5323 10.5145 69.9908 10.5145C69.477 10.5145 69.0049 10.6257 68.5745 10.8483C68.1579 11.0569 67.783 11.349 67.4498 11.7245L65.7835 10.0138C66.3667 9.47138 67.0471 9.06805 67.8247 8.80379C68.6022 8.52563 69.4076 8.38655 70.2407 8.38655C71.1571 8.38655 71.9069 8.50477 72.4901 8.74121C73.0872 8.96373 73.5593 9.29753 73.9064 9.74259C74.2674 10.1876 74.5174 10.737 74.6562 11.3907C74.7951 12.0305 74.8645 12.7745 74.8645 13.6229V18.7759H71.9902V17.5033ZM71.2196 14.3322C70.9836 14.3322 70.685 14.3461 70.324 14.374C69.9769 14.3879 69.6367 14.4435 69.3034 14.5409C68.9841 14.6382 68.7064 14.7843 68.4703 14.979C68.2482 15.1737 68.1371 15.4449 68.1371 15.7926C68.1371 16.1681 68.2968 16.4463 68.6161 16.6271C68.9355 16.8079 69.2687 16.8983 69.6159 16.8983C69.9213 16.8983 70.2129 16.8566 70.4906 16.7731C70.7822 16.6897 71.0391 16.5714 71.2613 16.4184C71.4834 16.2655 71.657 16.0707 71.782 15.8343C71.9208 15.5979 71.9902 15.3197 71.9902 14.9998V14.3322H71.2196Z" fill="#F5F3E1"/>
<path d="M76.8246 8.6369H79.9488V10.2641H79.9904C80.3237 9.63828 80.7194 9.17236 81.1776 8.86638C81.6358 8.54649 82.2121 8.38655 82.9063 8.38655C83.0868 8.38655 83.2673 8.39351 83.4478 8.40741C83.6284 8.42132 83.795 8.44914 83.9477 8.49086V11.349C83.7256 11.2794 83.5034 11.2307 83.2812 11.2029C83.073 11.1612 82.8508 11.1403 82.6147 11.1403C82.0177 11.1403 81.5456 11.2238 81.1984 11.3907C80.8513 11.5576 80.5806 11.794 80.3862 12.1C80.2056 12.3921 80.0876 12.7467 80.0321 13.164C79.9765 13.5812 79.9488 14.0402 79.9488 14.5409V18.7759H76.8246V8.6369Z" fill="#F5F3E1"/>
<path d="M94.521 17.0234C94.0211 17.6632 93.3893 18.157 92.6256 18.5047C91.8619 18.8524 91.0705 19.0262 90.2512 19.0262C89.4737 19.0262 88.7377 18.901 88.0435 18.6507C87.3631 18.4003 86.766 18.0457 86.2523 17.5867C85.7524 17.1139 85.3567 16.5506 85.0651 15.8969C84.7735 15.2432 84.6277 14.513 84.6277 13.7064C84.6277 12.8997 84.7735 12.1695 85.0651 11.5159C85.3567 10.8622 85.7524 10.3059 86.2523 9.8469C86.766 9.37402 87.3631 9.01241 88.0435 8.76207C88.7377 8.51172 89.4737 8.38655 90.2512 8.38655C90.9733 8.38655 91.6259 8.51172 92.2091 8.76207C92.8061 9.01241 93.306 9.37402 93.7087 9.8469C94.1252 10.3059 94.4446 10.8622 94.6667 11.5159C94.8889 12.1695 95 12.8997 95 13.7064V14.6869H87.7519C87.8769 15.2849 88.1476 15.7648 88.5642 16.1264C88.9807 16.4741 89.4945 16.6479 90.1055 16.6479C90.6192 16.6479 91.0496 16.5367 91.3968 16.3141C91.7578 16.0777 92.0702 15.7787 92.334 15.4171L94.521 17.0234ZM91.8758 12.559C91.8897 12.0305 91.7161 11.5784 91.3551 11.2029C90.9941 10.8274 90.5289 10.6397 89.9596 10.6397C89.6125 10.6397 89.307 10.6953 89.0432 10.8066C88.7794 10.9178 88.5503 11.0639 88.3559 11.2447C88.1754 11.4116 88.0296 11.6132 87.9185 11.8497C87.8213 12.0722 87.7658 12.3086 87.7519 12.559H91.8758Z" fill="#F5F3E1"/>
</svg>
