<svg width="289" height="125" viewBox="0 0 289 125" fill="none" xmlns="http://www.w3.org/2000/svg">
<path d="M15.131 100.579C10.7452 100.579 7.42845 99.3453 5.18073 96.8783C2.933 94.3565 1.80914 90.7656 1.80914 86.1057V82.8163H10.3615V86.7635C10.3615 90.4915 11.9239 92.3554 15.0488 92.3554C16.5838 92.3554 17.7351 91.9169 18.5026 91.0397C19.3249 90.1077 19.7361 88.6275 19.7361 86.5991C19.7361 84.1869 19.1879 82.0762 18.0914 80.2671C16.995 78.4031 14.9665 76.1828 12.0061 73.6061C8.2782 70.3168 5.67413 67.3564 4.19392 64.7249C2.71371 62.0386 1.97361 59.0234 1.97361 55.6792C1.97361 51.1289 3.12488 47.6203 5.42743 45.1533C7.72997 42.6314 11.0741 41.3705 15.4599 41.3705C19.7909 41.3705 23.0529 42.6314 25.2458 45.1533C27.4935 47.6203 28.6173 51.1837 28.6173 55.8437V58.2284H20.065V55.268C20.065 53.2944 19.6813 51.869 18.9138 50.9919C18.1462 50.0599 17.0224 49.5939 15.5422 49.5939C12.5269 49.5939 11.0193 51.4304 11.0193 55.1035C11.0193 57.1868 11.5675 59.133 12.664 60.9421C13.8153 62.7513 15.8711 64.9442 18.8315 67.5208C22.6143 70.8102 25.2183 73.798 26.6437 76.4843C28.0691 79.1706 28.7818 82.3229 28.7818 85.9412C28.7818 90.6559 27.6031 94.2742 25.2458 96.7961C22.9432 99.3179 19.5716 100.579 15.131 100.579ZM47.1257 100.579C42.7399 100.579 39.3957 99.3453 37.0932 96.8783C34.7907 94.3565 33.6394 90.7656 33.6394 86.1057V42.1929H42.6851V86.7635C42.6851 88.7371 43.0688 90.1625 43.8364 91.0397C44.6587 91.9169 45.81 92.3554 47.2902 92.3554C48.7704 92.3554 49.8942 91.9169 50.6618 91.0397C51.4841 90.1625 51.8953 88.7371 51.8953 86.7635V42.1929H60.612V86.1057C60.612 90.7656 59.4608 94.3565 57.1582 96.8783C54.8557 99.3453 51.5115 100.579 47.1257 100.579ZM67.0545 42.1929H80.3764C84.8719 42.1929 88.2434 43.3989 90.4912 45.8111C92.7389 48.2233 93.8627 51.7594 93.8627 56.4193V62.0934C93.8627 66.7533 92.7389 70.2894 90.4912 72.7016C88.2434 75.1138 84.8719 76.3199 80.3764 76.3199H76.1003V99.7565H67.0545V42.1929ZM80.3764 68.0965C81.8566 68.0965 82.9531 67.6853 83.6658 66.863C84.4333 66.0406 84.817 64.6427 84.817 62.6691V55.8437C84.817 53.87 84.4333 52.4721 83.6658 51.6497C82.9531 50.8274 81.8566 50.4162 80.3764 50.4162H76.1003V68.0965H80.3764ZM98.7756 42.1929H112.097C116.593 42.1929 119.964 43.3989 122.212 45.8111C124.46 48.2233 125.584 51.7594 125.584 56.4193V62.0934C125.584 66.7533 124.46 70.2894 122.212 72.7016C119.964 75.1138 116.593 76.3199 112.097 76.3199H107.821V99.7565H98.7756V42.1929ZM112.097 68.0965C113.578 68.0965 114.674 67.6853 115.387 66.863C116.154 66.0406 116.538 64.6427 116.538 62.6691V55.8437C116.538 53.87 116.154 52.4721 115.387 51.6497C114.674 50.8274 113.578 50.4162 112.097 50.4162H107.821V68.0965H112.097ZM143.572 100.579C139.131 100.579 135.732 99.3179 133.375 96.7961C131.017 94.2742 129.839 90.7108 129.839 86.1057V55.8437C129.839 51.2386 131.017 47.6751 133.375 45.1533C135.732 42.6314 139.131 41.3705 143.572 41.3705C148.012 41.3705 151.411 42.6314 153.769 45.1533C156.126 47.6751 157.305 51.2386 157.305 55.8437V86.1057C157.305 90.7108 156.126 94.2742 153.769 96.7961C151.411 99.3179 148.012 100.579 143.572 100.579ZM143.572 92.3554C146.697 92.3554 148.259 90.4641 148.259 86.6813V55.268C148.259 51.4853 146.697 49.5939 143.572 49.5939C140.447 49.5939 138.884 51.4853 138.884 55.268V86.6813C138.884 90.4641 140.447 92.3554 143.572 92.3554ZM163.422 42.1929H176.826C181.486 42.1929 184.885 43.2893 187.023 45.4822C189.161 47.6203 190.23 50.937 190.23 55.4325V58.9685C190.23 64.9442 188.257 68.7269 184.31 70.3168V70.4813C186.502 71.1391 188.037 72.4823 188.915 74.5107C189.847 76.5391 190.313 79.2529 190.313 82.6519V92.7666C190.313 94.4113 190.367 95.7544 190.477 96.7961C190.587 97.7829 190.861 98.7697 191.299 99.7565H182.089C181.76 98.8245 181.541 97.9473 181.431 97.125C181.322 96.3027 181.267 94.8224 181.267 92.6844V82.1584C181.267 79.527 180.828 77.6904 179.951 76.6488C179.129 75.6072 177.676 75.0863 175.593 75.0863H172.468V99.7565H163.422V42.1929ZM175.757 66.863C177.566 66.863 178.91 66.397 179.787 65.465C180.719 64.533 181.185 62.9706 181.185 60.7777V56.3371C181.185 54.2538 180.801 52.7462 180.033 51.8142C179.321 50.8822 178.169 50.4162 176.58 50.4162H172.468V66.863H175.757ZM203.5 50.4162H194.043V42.1929H222.003V50.4162H212.546V99.7565H203.5V50.4162Z" fill="#F5F3E1"/>
<path fill-rule="evenodd" clip-rule="evenodd" d="M267.197 40.9556C265.025 41.4651 263.677 43.6391 264.186 45.8112C264.696 47.9833 266.87 49.3311 269.042 48.8215C271.214 48.312 272.562 46.1381 272.052 43.966C271.543 41.7938 269.369 40.446 267.197 40.9556ZM257.022 57.7705C254.847 58.392 252.672 57.149 252.05 55.5953C251.74 54.0416 252.983 52.4878 255.158 51.8663C257.333 51.2448 259.508 52.4878 260.13 54.0416C260.441 55.5953 259.198 57.4598 257.022 57.7705Z" fill="#F5F3E1"/>
<path d="M264.186 45.8112L262.852 46.1242V46.1242L264.186 45.8112ZM267.197 40.9556L266.884 39.6213L267.197 40.9556ZM269.042 48.8215L268.729 47.4872L269.042 48.8215ZM272.052 43.966L273.387 43.6529V43.6529L272.052 43.966ZM252.05 55.5953L250.706 55.8641L250.731 55.9875L250.778 56.1043L252.05 55.5953ZM257.022 57.7705L256.828 56.4137L256.736 56.427L256.646 56.4527L257.022 57.7705ZM255.158 51.8663L254.781 50.5485L255.158 51.8663ZM260.13 54.0416L261.474 53.7728L261.449 53.6494L261.402 53.5325L260.13 54.0416ZM198.912 9.91483L200.25 9.61752L200.246 9.59992L200.242 9.58242L198.912 9.91483ZM233.716 10.5363L233.005 11.7079L233.333 11.9069H233.716V10.5363ZM264.791 109.355L264.961 110.715L264.994 110.71L265.027 110.705L264.791 109.355ZM261.994 98.7891L262.607 100.015L262.637 100L262.666 99.9837L261.994 98.7891ZM266.345 74.2399L265.844 75.5159L265.905 75.5398L265.968 75.5577L266.345 74.2399ZM234.823 12.0508L234.007 13.1515L234.017 13.1592L234.028 13.1668L234.823 12.0508ZM200.466 16.4404L199.497 15.4713L198.974 15.9941L199.124 16.7181L200.466 16.4404ZM238.688 25.7629L239.499 24.6576L239.488 24.65L238.688 25.7629ZM248.011 32.5994H249.381V31.9048L248.821 31.4941L248.011 32.5994ZM233.844 10.0795L233.135 11.2527L233.462 11.45H233.844V10.0795ZM264.87 109.805L264.633 108.455L264.633 108.455L264.87 109.805ZM264.848 109.808L264.678 108.448L264.678 108.448L264.848 109.808ZM261.779 98.3858L262.397 99.6093L262.425 99.5952L262.452 99.5799L261.779 98.3858ZM266.219 74.6792L266.596 73.3614L266.595 73.3613L266.219 74.6792ZM266.178 74.6652L266.678 73.3894L266.678 73.3893L266.178 74.6652ZM250.33 68.4502L249.829 69.7262L249.829 69.7262L250.33 68.4502ZM250.071 67.8581L251.347 68.3585L251.347 68.3585L250.071 67.8581ZM250.663 67.5996L250.163 68.8756L250.163 68.8756L250.663 67.5996ZM266.492 73.8068L265.991 75.0828L266.049 75.1056L266.109 75.123L266.492 73.8068ZM262.218 99.1873L261.546 97.9927V97.9927L262.218 99.1873ZM262.199 99.1977L261.586 97.9719V97.9719L262.199 99.1977ZM264.723 108.903L264.89 110.263L264.925 110.259L264.96 110.253L264.723 108.903ZM233.479 10.9268L232.768 12.0984L232.768 12.0984L233.479 10.9268ZM199.355 9.80403L200.689 9.48923L200.687 9.48041L200.685 9.47162L199.355 9.80403ZM199.358 9.81573L200.696 9.51841L200.694 9.50966L200.692 9.50093L199.358 9.81573ZM200.655 15.6513L199.317 15.9486L199.803 18.1339L201.528 16.7077L200.655 15.6513ZM238.955 25.3919L239.76 24.2831L239.755 24.279L238.955 25.3919ZM238.958 25.3945L239.769 24.2892L239.764 24.2856L238.958 25.3945ZM248.281 32.231L247.47 33.3362L247.47 33.3362L248.281 32.231ZM202.195 26.7944L200.857 27.0917L200.857 27.0917L202.195 26.7944ZM198.467 10.0195L199.805 9.72216L199.802 9.7052L199.797 9.68835L198.467 10.0195ZM200.968 16.5909L200.037 15.5854L199.457 16.1222L199.631 16.8928L200.968 16.5909ZM247.554 32.8309H248.924V32.1364L248.364 31.7256L247.554 32.8309ZM238.421 26.1339L239.232 25.0286L239.222 25.0214L238.421 26.1339ZM238.42 26.1325L239.22 25.02L239.219 25.0196L238.42 26.1325ZM265.521 45.4982C265.184 44.063 266.074 42.6266 267.51 42.2899L266.884 39.6213C263.975 40.3037 262.17 43.2151 262.852 46.1242L265.521 45.4982ZM268.729 47.4872C267.294 47.8239 265.857 46.9334 265.521 45.4982L262.852 46.1242C263.534 49.0332 266.446 50.8383 269.355 50.1559L268.729 47.4872ZM270.718 44.279C271.055 45.7142 270.164 47.1505 268.729 47.4872L269.355 50.1559C272.264 49.4735 274.069 46.562 273.387 43.6529L270.718 44.279ZM267.51 42.2899C268.945 41.9533 270.381 42.8438 270.718 44.279L273.387 43.6529C272.704 40.7439 269.793 38.9388 266.884 39.6213L267.51 42.2899ZM250.778 56.1043C251.669 58.3331 254.571 59.8962 257.399 59.0884L256.646 56.4527C255.123 56.8879 253.674 55.965 253.323 55.0863L250.778 56.1043ZM254.781 50.5485C252.282 51.2625 250.192 53.2931 250.706 55.8641L253.394 55.3265C253.287 54.79 253.683 53.7131 255.534 53.1841L254.781 50.5485ZM261.402 53.5325C260.511 51.3038 257.609 49.7406 254.781 50.5485L255.534 53.1841C257.057 52.749 258.506 53.6718 258.857 54.5506L261.402 53.5325ZM257.216 59.1273C260.049 58.7227 261.962 56.2136 261.474 53.7728L258.786 54.3103C258.919 54.977 258.347 56.1969 256.828 56.4137L257.216 59.1273ZM203.979 26.398L200.25 9.61752L197.574 10.2122L201.303 26.9926L203.979 26.398ZM200.242 9.58242C199.512 6.66213 201.725 3.82742 204.506 3.82742V1.08629C199.828 1.08629 196.448 5.70956 197.582 10.2472L200.242 9.58242ZM204.506 3.82742C214.517 3.82742 224.524 6.55914 233.005 11.7079L234.427 9.36479C225.506 3.94805 215.004 1.08629 204.506 1.08629V3.82742ZM233.716 11.9069H259.819V9.16577H233.716V11.9069ZM259.819 11.9069C273.988 11.9069 285.173 23.1122 285.173 36.95H287.914C287.914 21.5774 275.481 9.16577 259.819 9.16577V11.9069ZM285.173 36.95V83.5624H287.914V36.95H285.173ZM285.173 83.5624C285.173 95.928 276.349 105.941 264.555 108.005L265.027 110.705C278.093 108.418 287.914 97.2997 287.914 83.5624H285.173ZM264.621 107.995C262.923 108.207 261.5 106.947 261.5 105.315H258.759C258.759 108.655 261.687 111.124 264.961 110.715L264.621 107.995ZM261.5 105.315V102.207H258.759V105.315H261.5ZM261.5 102.207C261.5 101.277 261.988 100.324 262.607 100.015L261.381 97.5632C259.514 98.4969 258.759 100.652 258.759 102.207H261.5ZM262.666 99.9837C268.075 96.9409 271.444 91.1981 271.444 84.8054H268.703C268.703 90.2211 265.857 95.0438 261.322 97.5946L262.666 99.9837ZM271.444 84.8054V79.5227H268.703V84.8054H271.444ZM271.444 79.5227C271.444 76.4946 269.549 73.7302 266.721 72.9221L265.968 75.5577C267.49 75.9927 268.703 77.5787 268.703 79.5227H271.444ZM266.845 72.964L250.997 66.749L249.996 69.3009L265.844 75.5159L266.845 72.964ZM249.076 20.5287L235.619 10.9348L234.028 13.1668L247.485 22.7607L249.076 20.5287ZM235.64 10.9501C230.735 7.31075 226.206 4.82917 221.283 3.26722C216.364 1.70663 211.121 1.08629 204.816 1.08629V3.82742C210.941 3.82742 215.885 4.43043 220.454 5.88C225.019 7.32821 229.279 9.64359 234.007 13.1515L235.64 10.9501ZM203.673 25.1744L201.808 16.1627L199.124 16.7181L200.988 25.7298L203.673 25.1744ZM201.435 17.4095C202.429 16.4154 203.638 15.9465 204.816 15.9465V13.2053C202.888 13.2053 200.989 13.9794 199.497 15.4713L201.435 17.4095ZM204.816 15.9465C216.629 15.9465 228.161 19.8845 237.888 26.8758L239.488 24.65C229.327 17.3468 217.242 13.2053 204.816 13.2053V15.9465ZM237.878 26.8681L247.2 33.7046L248.821 31.4941L239.499 24.6577L237.878 26.8681ZM246.64 32.5994V42.8541H249.381V32.5994H246.64ZM286.543 57.6428H278.464V60.3839H286.543V57.6428ZM286.543 65.7222H278.464V68.4633H286.543V65.7222ZM286.543 73.8016H280.328V76.5427H286.543V73.8016ZM234.552 8.90624C225.581 3.48895 215.041 0.629438 204.506 0.629438V3.37056C214.556 3.37056 224.604 6.10109 233.135 11.2527L234.552 8.90624ZM259.819 8.70892H233.844V11.45H259.819V8.70892ZM288.371 36.95C288.371 21.3216 275.73 8.70892 259.819 8.70892V11.45C274.237 11.45 285.63 22.8564 285.63 36.95H288.371ZM288.371 83.5624V36.95H285.63V83.5624H288.371ZM265.106 111.155C278.384 108.831 288.371 97.5284 288.371 83.5624H285.63C285.63 96.1566 276.64 106.353 264.633 108.455L265.106 111.155ZM265.017 111.168C265.047 111.164 265.076 111.16 265.107 111.154L264.633 108.455C264.648 108.452 264.663 108.45 264.678 108.448L265.017 111.168ZM258.302 105.315C258.302 108.941 261.482 111.61 265.018 111.168L264.678 108.448C262.716 108.693 261.043 107.23 261.043 105.315H258.302ZM258.302 102.207V105.315H261.043V102.207H258.302ZM261.162 97.1623C259.096 98.2049 258.302 100.554 258.302 102.207H261.043C261.043 101.173 261.575 100.024 262.397 99.6093L261.162 97.1623ZM268.246 84.8054C268.246 90.055 265.491 94.7217 261.107 97.1917L262.452 99.5799C267.71 96.6177 270.987 91.0314 270.987 84.8054H268.246ZM268.246 79.5227V84.8054H270.987V79.5227H268.246ZM265.843 75.997C267.148 76.3701 268.246 77.7606 268.246 79.5227H270.987C270.987 76.6741 269.205 74.1069 266.596 73.3614L265.843 75.997ZM265.677 75.9411C265.731 75.9623 265.787 75.981 265.843 75.9971L266.595 73.3613C266.624 73.3694 266.651 73.3788 266.678 73.3894L265.677 75.9411ZM249.829 69.7262L265.678 75.9412L266.678 73.3893L250.83 67.1743L249.829 69.7262ZM248.795 67.3578C248.427 68.2973 248.89 69.3577 249.829 69.7262L250.83 67.1743C251.3 67.3585 251.531 67.8887 251.347 68.3585L248.795 67.3578ZM251.164 66.3237C250.224 65.9552 249.164 66.4182 248.795 67.3578L251.347 68.3585C251.163 68.8283 250.633 69.0598 250.163 68.8756L251.164 66.3237ZM266.992 72.5308L251.164 66.3237L250.163 68.8756L265.991 75.0828L266.992 72.5308ZM271.901 79.5227C271.901 76.3243 269.905 73.3711 266.874 72.4906L266.109 75.123C267.841 75.6258 269.16 77.4036 269.16 79.5227H271.901ZM271.901 84.8054V79.5227H269.16V84.8054H271.901ZM262.89 100.382C268.445 97.2571 271.901 91.3609 271.901 84.8054H269.16C269.16 90.384 266.227 95.36 261.546 97.9927L262.89 100.382ZM262.811 100.424C262.839 100.41 262.865 100.396 262.89 100.382L261.546 97.9927C261.559 97.9858 261.572 97.9788 261.586 97.9719L262.811 100.424ZM261.957 102.207C261.957 101.854 262.051 101.441 262.229 101.084C262.41 100.724 262.628 100.515 262.811 100.424L261.586 97.9719C260.734 98.3978 260.146 99.1245 259.779 99.8548C259.411 100.589 259.216 101.422 259.216 102.207H261.957ZM261.957 105.315V102.207H259.216V105.315H261.957ZM264.557 107.542C263.127 107.717 261.957 106.661 261.957 105.315H259.216C259.216 108.364 261.883 110.63 264.89 110.263L264.557 107.542ZM284.716 83.5624C284.716 95.6958 276.063 105.522 264.487 107.553L264.96 110.253C277.808 107.999 287.457 97.0669 287.457 83.5624H284.716ZM284.716 36.95V83.5624H287.457V36.95H284.716ZM259.819 12.3637C273.74 12.3637 284.716 23.3679 284.716 36.95H287.457C287.457 21.8333 275.233 9.62262 259.819 9.62262V12.3637ZM233.716 12.3637H259.819V9.62262H233.716V12.3637ZM232.768 12.0984C233.054 12.272 233.382 12.3637 233.716 12.3637V9.62262C233.883 9.62262 234.047 9.66852 234.19 9.75529L232.768 12.0984ZM204.506 4.28427C214.436 4.28427 224.361 6.99433 232.768 12.0984L234.19 9.75531C225.342 4.38323 214.923 1.54315 204.506 1.54315V4.28427ZM200.685 9.47162C200.023 6.82303 202.04 4.28427 204.506 4.28427V1.54315C200.146 1.54315 196.958 5.86619 198.026 10.1364L200.685 9.47162ZM200.692 9.50093L200.689 9.48923L198.021 10.1188L198.024 10.1305L200.692 9.50093ZM201.993 15.354L200.696 9.51841L198.02 10.113L199.317 15.9486L201.993 15.354ZM204.816 12.7485C203.021 12.7485 201.252 13.3792 199.782 14.5949L201.528 16.7077C202.519 15.8888 203.673 15.4896 204.816 15.4896V12.7485ZM239.755 24.279C229.521 16.9238 217.344 12.7485 204.816 12.7485V15.4896C216.731 15.4896 228.355 19.4616 238.155 26.5048L239.755 24.279ZM239.764 24.2856L239.76 24.2831L238.149 26.5007L238.153 26.5033L239.764 24.2856ZM249.091 31.1257L239.769 24.2892L238.148 26.4997L247.47 33.3362L249.091 31.1257ZM249.838 32.5994C249.838 32.0173 249.561 31.47 249.091 31.1257L247.47 33.3362C247.235 33.1641 247.097 32.8904 247.097 32.5994H249.838ZM249.838 46.2723V32.5994H247.097V46.2723H249.838ZM237.579 58.9752C244.497 58.9001 249.838 53.0718 249.838 46.2723H247.097C247.097 51.6719 242.865 56.1766 237.549 56.2343L237.579 58.9752ZM200.857 27.0917C200.882 27.2019 201.262 28.5985 201.629 29.9061C201.817 30.5757 202.008 31.2494 202.16 31.7621C202.236 32.0167 202.304 32.2419 202.359 32.4101C202.386 32.4915 202.415 32.577 202.443 32.6514C202.456 32.6853 202.479 32.7431 202.509 32.8058C202.524 32.8351 202.553 32.8943 202.597 32.9629C202.605 32.9751 202.748 33.2181 203.036 33.3967L204.478 31.0652C204.764 31.2418 204.903 31.4804 204.906 31.4856C204.945 31.5473 204.97 31.5971 204.978 31.6146C204.997 31.6538 205.006 31.6785 205.003 31.6706C204.999 31.6611 204.987 31.6274 204.965 31.559C204.922 31.4276 204.862 31.2315 204.788 30.9833C204.642 30.4904 204.455 29.8323 204.268 29.1663C204.082 28.5016 203.898 27.8345 203.759 27.3259C203.61 26.7841 203.53 26.4854 203.533 26.4971L200.857 27.0917ZM197.129 10.3168L200.857 27.0917L203.533 26.4971L199.805 9.72216L197.129 10.3168ZM204.506 0.629438C199.512 0.629438 195.942 5.54763 197.137 10.3506L199.797 9.68835C199.003 6.49826 201.413 3.37056 204.506 3.37056V0.629438ZM205.819 31.8505L202.305 16.289L199.631 16.8928L203.145 32.4542L205.819 31.8505ZM246.183 46.2723C246.183 51.2006 242.327 55.2636 237.548 55.3205L237.581 58.0615C243.958 57.9854 248.924 52.6025 248.924 46.2723H246.183ZM246.183 32.8309V46.2723H248.924V32.8309H246.183ZM237.611 27.2391L246.743 33.9361L248.364 31.7256L239.232 25.0286L237.611 27.2391ZM237.619 27.2451L237.621 27.2464L239.222 25.0214L239.22 25.02L237.619 27.2451ZM204.816 16.4033C216.527 16.4033 227.965 20.307 237.62 27.2455L239.219 25.0196C229.131 17.7692 217.139 13.6622 204.816 13.6622V16.4033ZM201.9 17.5964C202.78 16.7806 203.815 16.4033 204.816 16.4033V13.6622C203.106 13.6622 201.411 14.313 200.037 15.5854L201.9 17.5964Z" fill="#F5F3E1"/>
</svg>
