<svg width="28" height="28" viewBox="0 0 28 28" fill="none" xmlns="http://www.w3.org/2000/svg">
<path d="M0.256905 18.1186L2.59481 20.4561C2.7589 20.6202 2.98141 20.7123 3.21342 20.7123C3.44543 20.7123 3.66794 20.6202 3.83202 20.4561C4.07515 20.2116 4.36436 20.0178 4.68291 19.8859C5.00147 19.7539 5.34303 19.6865 5.68782 19.6874C7.13545 19.6874 8.31272 20.8648 8.31272 22.3125C8.31357 22.6574 8.24603 22.999 8.11402 23.3176C7.98201 23.6363 7.78814 23.9256 7.54362 24.1688C7.37959 24.3329 7.28745 24.5554 7.28745 24.7874C7.28745 25.0194 7.37959 25.242 7.54362 25.406L9.88153 27.7436C10.0526 27.9147 10.2761 28 10.5001 28C10.7241 28 10.9481 27.9147 11.1187 27.7436L27.7431 11.1185C27.8245 11.0374 27.8891 10.941 27.9332 10.8348C27.9773 10.7287 28 10.6148 28 10.4999C28 10.3849 27.9773 10.2711 27.9332 10.165C27.8891 10.0588 27.8245 9.96239 27.7431 9.88125L25.4052 7.54368C25.2411 7.37964 25.0186 7.28749 24.7866 7.28749C24.5546 7.28749 24.3321 7.37964 24.168 7.54368C23.9249 7.78817 23.6356 7.982 23.3171 8.11395C22.9985 8.24589 22.657 8.31334 22.3122 8.31237C20.8645 8.31237 19.6873 7.13505 19.6873 5.68735C19.6873 4.98603 19.9607 4.32715 20.4564 3.83103C20.6204 3.66694 20.7126 3.44442 20.7126 3.2124C20.7126 2.98038 20.6204 2.75786 20.4564 2.59377L18.1185 0.25619C17.9544 0.0921516 17.7319 0 17.4999 0C17.2679 0 17.0453 0.0921516 16.8813 0.25619L0.256905 16.8813C0.175476 16.9624 0.110866 17.0588 0.0667798 17.165C0.0226939 17.2712 0 17.385 0 17.4999C0 17.6149 0.0226939 17.7287 0.0667798 17.8349C0.110866 17.941 0.175476 18.0374 0.256905 18.1186ZM11.3751 8.23712L12.0689 8.931C12.2396 9.10206 12.4636 9.18737 12.6875 9.18737C12.9115 9.18737 13.1355 9.10206 13.3062 8.931C13.4702 8.76691 13.5623 8.54439 13.5623 8.31237C13.5623 8.08035 13.4702 7.85783 13.3062 7.69374L12.6123 6.99986L17.4999 2.11208L18.6618 3.27365C18.1873 3.98902 17.9352 4.82889 17.9373 5.68735C17.9373 8.09974 19.8999 10.0624 22.3122 10.0624C23.1704 10.0648 24.0102 9.8128 24.7253 9.33831L25.8869 10.4999L20.9997 15.3877L20.3059 14.6938C20.2252 14.6102 20.1286 14.5436 20.0219 14.4977C19.9151 14.4518 19.8003 14.4277 19.6841 14.4267C19.568 14.4257 19.4527 14.4478 19.3452 14.4918C19.2377 14.5358 19.14 14.6008 19.0578 14.6829C18.9757 14.7651 18.9107 14.8628 18.8667 14.9703C18.8227 15.0779 18.8006 15.1931 18.8016 15.3093C18.8026 15.4254 18.8267 15.5403 18.8726 15.647C18.9185 15.7538 18.9851 15.8503 19.0687 15.931L19.7625 16.6249L10.5001 25.8877L9.33818 24.7262C9.81272 24.0108 10.0648 23.1709 10.0627 22.3125C10.0627 19.9001 8.1001 17.9374 5.68782 17.9374C4.82957 17.9351 3.98985 18.187 3.27466 18.6615L2.11315 17.4999L11.3751 8.23712Z" fill="#F5F3E1"/>
<path d="M14.5563 11.7078C14.7266 11.8785 14.9502 11.9637 15.1737 11.9637C15.3973 11.9637 15.6208 11.8785 15.7911 11.7078C15.9548 11.5441 16.0468 11.322 16.0468 11.0905C16.0468 10.8589 15.9548 10.6369 15.7911 10.4731L14.9179 9.59989C14.8373 9.51649 14.7409 9.44997 14.6344 9.40421C14.5279 9.35844 14.4133 9.33435 14.2973 9.33335C14.1814 9.33234 14.0664 9.35443 13.9591 9.39834C13.8518 9.44224 13.7543 9.50708 13.6723 9.58907C13.5903 9.67106 13.5254 9.76856 13.4815 9.87587C13.4376 9.98318 13.4155 10.0982 13.4165 10.2141C13.4175 10.3301 13.4416 10.4446 13.4874 10.5512C13.5332 10.6577 13.5997 10.7541 13.6831 10.8346L14.5563 11.7078ZM16.3028 13.4543L17.1761 14.3275C17.3463 14.4982 17.5699 14.5833 17.7934 14.5833C18.017 14.5833 18.2405 14.4982 18.4108 14.3275C18.5745 14.1637 18.6665 13.9416 18.6665 13.7101C18.6665 13.4786 18.5745 13.2565 18.4108 13.0927L17.5376 12.2195C17.457 12.1361 17.3607 12.0696 17.2541 12.0238C17.1476 11.9781 17.033 11.954 16.9171 11.953C16.8011 11.952 16.6861 11.9741 16.5788 12.018C16.4715 12.0619 16.374 12.1267 16.292 12.2087C16.21 12.2907 16.1452 12.3882 16.1013 12.4955C16.0574 12.6028 16.0353 12.7178 16.0363 12.8337C16.0373 12.9497 16.0614 13.0643 16.1071 13.1708C16.1529 13.2773 16.2194 13.3737 16.3028 13.4543Z" fill="#F5F3E1"/>
</svg>
