<svg width="183" height="42" viewBox="0 0 183 42" fill="none" xmlns="http://www.w3.org/2000/svg">
<path d="M51.7891 30.1746V13.8145H58.3395C59.5431 13.8145 60.5469 13.9929 61.3511 14.3497C62.1553 14.7065 62.7597 15.2018 63.1644 15.8356C63.5692 16.464 63.7716 17.1883 63.7716 18.0084C63.7716 18.6475 63.6437 19.2093 63.3881 19.6939C63.1325 20.1732 62.781 20.5673 62.3337 20.8762C61.8916 21.1798 61.3857 21.3954 60.8159 21.5233V21.683C61.439 21.7096 62.0221 21.8854 62.5653 22.2103C63.1139 22.5351 63.5585 22.9904 63.8994 23.5763C64.2402 24.1567 64.4106 24.8491 64.4106 25.6532C64.4106 26.5213 64.1949 27.2962 63.7636 27.9778C63.3375 28.6542 62.7064 29.1894 61.8703 29.5835C61.0342 29.9776 60.0037 30.1746 58.7789 30.1746H51.7891ZM55.248 27.3467H58.0679C59.0318 27.3467 59.7348 27.163 60.1768 26.7956C60.6188 26.4228 60.8398 25.9275 60.8398 25.3097C60.8398 24.8571 60.7307 24.4576 60.5123 24.1115C60.294 23.7653 59.9824 23.4937 59.5777 23.2967C59.1783 23.0996 58.7016 23.0011 58.1478 23.0011H55.248V27.3467ZM55.248 20.6605H57.8123C58.2862 20.6605 58.707 20.578 59.0744 20.4129C59.4472 20.2425 59.7401 20.0028 59.9531 19.6939C60.1715 19.385 60.2807 19.0149 60.2807 18.5836C60.2807 17.9924 60.0703 17.5158 59.6496 17.1536C59.2342 16.7915 58.643 16.6104 57.8762 16.6104H55.248V20.6605Z" fill="black"/>
<path d="M70.0005 13.8145V30.1746H66.5974V13.8145H70.0005Z" fill="black"/>
<path d="M76.2254 30.4063C75.4425 30.4063 74.7449 30.2705 74.1324 29.9989C73.52 29.7219 73.0354 29.3145 72.6785 28.7767C72.3271 28.2335 72.1513 27.5571 72.1513 26.7476C72.1513 26.066 72.2765 25.4935 72.5268 25.0301C72.7771 24.5668 73.1179 24.194 73.5493 23.9118C73.9806 23.6295 74.4706 23.4165 75.0191 23.2727C75.573 23.1289 76.1535 23.0277 76.7606 22.9691C77.4742 22.8946 78.0494 22.8254 78.4861 22.7614C78.9228 22.6922 79.2396 22.591 79.4367 22.4579C79.6337 22.3248 79.7322 22.1277 79.7322 21.8668V21.8188C79.7322 21.3129 79.5725 20.9215 79.2529 20.6445C78.9387 20.3676 78.4914 20.2291 77.9109 20.2291C77.2985 20.2291 76.8112 20.3649 76.449 20.6366C76.0869 20.9028 75.8472 21.2383 75.7301 21.6431L72.5827 21.3875C72.7425 20.6419 73.0567 19.9975 73.5253 19.4543C73.994 18.9057 74.5984 18.485 75.3387 18.1921C76.0842 17.8939 76.947 17.7448 77.9269 17.7448C78.6085 17.7448 79.2609 17.8247 79.884 17.9844C80.5124 18.1442 81.069 18.3918 81.5536 18.7273C82.0435 19.0628 82.4296 19.4942 82.7119 20.0214C82.9941 20.5434 83.1353 21.1691 83.1353 21.8987V30.1746H79.908V28.4731H79.8121C79.6151 28.8565 79.3515 29.1947 79.0213 29.4876C78.6911 29.7752 78.2943 30.0015 77.831 30.1666C77.3677 30.3264 76.8325 30.4063 76.2254 30.4063ZM77.1999 28.0577C77.7005 28.0577 78.1426 27.9592 78.526 27.7621C78.9094 27.5598 79.2103 27.2882 79.4287 26.9473C79.647 26.6065 79.7562 26.2204 79.7562 25.789V24.4869C79.6497 24.5562 79.5032 24.6201 79.3168 24.6786C79.1358 24.7319 78.9307 24.7825 78.7017 24.8304C78.4727 24.873 78.2437 24.913 78.0147 24.9502C77.7857 24.9822 77.5781 25.0115 77.3917 25.0381C76.9922 25.0967 76.6434 25.1899 76.3452 25.3177C76.047 25.4455 75.8153 25.6186 75.6502 25.837C75.4851 26.05 75.4026 26.3163 75.4026 26.6358C75.4026 27.0991 75.5703 27.4533 75.9058 27.6982C76.2467 27.9379 76.678 28.0577 77.1999 28.0577Z" fill="black"/>
<path d="M91.3193 30.4143C90.0625 30.4143 88.9814 30.148 88.076 29.6154C87.176 29.0776 86.4837 28.332 85.9991 27.3787C85.5198 26.4254 85.2801 25.3284 85.2801 24.0875C85.2801 22.8307 85.5224 21.7283 86.0071 20.7803C86.497 19.8271 87.192 19.0842 88.092 18.5516C88.992 18.0137 90.0625 17.7448 91.3033 17.7448C92.3738 17.7448 93.3111 17.9392 94.1152 18.3279C94.9194 18.7167 95.5558 19.2626 96.0244 19.9655C96.4931 20.6685 96.7514 21.494 96.7993 22.4419H93.588C93.4975 21.8295 93.2578 21.3369 92.869 20.9641C92.4856 20.586 91.9823 20.3969 91.3592 20.3969C90.832 20.3969 90.3714 20.5407 89.9773 20.8283C89.5885 21.1105 89.2849 21.5233 89.0666 22.0665C88.8483 22.6097 88.7391 23.2674 88.7391 24.0396C88.7391 24.8224 88.8456 25.4881 89.0586 26.0367C89.277 26.5852 89.5832 27.0032 89.9773 27.2908C90.3714 27.5784 90.832 27.7222 91.3592 27.7222C91.748 27.7222 92.0968 27.6423 92.4057 27.4825C92.7199 27.3228 92.9782 27.0911 93.1806 26.7876C93.3883 26.4787 93.5241 26.1086 93.588 25.6772H96.7993C96.746 26.6145 96.4904 27.4399 96.0324 28.1536C95.5798 28.8619 94.954 29.4157 94.1552 29.8151C93.3563 30.2146 92.411 30.4143 91.3193 30.4143Z" fill="black"/>
<path d="M102.062 26.6438L102.07 22.5617H102.565L106.495 17.9045H110.401L105.121 24.0715H104.314L102.062 26.6438ZM98.9781 30.1746V13.8145H102.381V30.1746H98.9781ZM106.647 30.1746L103.036 24.8304L105.305 22.4259L110.633 30.1746H106.647Z" fill="black"/>
<path d="M117.341 30.1746V13.8145H123.796C125.037 13.8145 126.094 14.0515 126.967 14.5255C127.841 14.9941 128.506 15.6465 128.964 16.4826C129.428 17.3134 129.659 18.272 129.659 19.3584C129.659 20.4448 129.425 21.4034 128.956 22.2342C128.488 23.065 127.809 23.7121 126.919 24.1754C126.035 24.6387 124.965 24.8704 123.708 24.8704H119.594V22.0984H123.149C123.814 22.0984 124.363 21.9839 124.794 21.7549C125.231 21.5206 125.556 21.1984 125.769 20.7883C125.987 20.3729 126.096 19.8963 126.096 19.3584C126.096 18.8152 125.987 18.3412 125.769 17.9365C125.556 17.5264 125.231 17.2096 124.794 16.9859C124.358 16.7569 123.804 16.6424 123.133 16.6424H120.8V30.1746H117.341Z" fill="black"/>
<path d="M137.188 30.4143C135.947 30.4143 134.874 30.1507 133.969 29.6234C133.069 29.0909 132.374 28.3506 131.884 27.4027C131.394 26.4494 131.149 25.3443 131.149 24.0875C131.149 22.82 131.394 21.7123 131.884 20.7644C132.374 19.8111 133.069 19.0708 133.969 18.5436C134.874 18.0111 135.947 17.7448 137.188 17.7448C138.429 17.7448 139.5 18.0111 140.4 18.5436C141.305 19.0708 142.003 19.8111 142.493 20.7644C142.982 21.7123 143.227 22.82 143.227 24.0875C143.227 25.3443 142.982 26.4494 142.493 27.4027C142.003 28.3506 141.305 29.0909 140.4 29.6234C139.5 30.1507 138.429 30.4143 137.188 30.4143ZM137.204 27.7781C137.769 27.7781 138.24 27.6184 138.618 27.2988C138.996 26.974 139.281 26.5319 139.473 25.9728C139.67 25.4136 139.769 24.7772 139.769 24.0635C139.769 23.3499 139.67 22.7135 139.473 22.1543C139.281 21.5951 138.996 21.1531 138.618 20.8283C138.24 20.5034 137.769 20.341 137.204 20.341C136.634 20.341 136.155 20.5034 135.766 20.8283C135.383 21.1531 135.093 21.5951 134.896 22.1543C134.704 22.7135 134.608 23.3499 134.608 24.0635C134.608 24.7772 134.704 25.4136 134.896 25.9728C135.093 26.5319 135.383 26.974 135.766 27.2988C136.155 27.6184 136.634 27.7781 137.204 27.7781Z" fill="black"/>
<path d="M145.44 30.1746V17.9045H148.843V30.1746H145.44ZM147.15 16.3229C146.644 16.3229 146.21 16.1551 145.848 15.8196C145.491 15.4788 145.312 15.0713 145.312 14.5974C145.312 14.1287 145.491 13.7266 145.848 13.3911C146.21 13.0503 146.644 12.8799 147.15 12.8799C147.656 12.8799 148.087 13.0503 148.444 13.3911C148.806 13.7266 148.987 14.1287 148.987 14.5974C148.987 15.0713 148.806 15.4788 148.444 15.8196C148.087 16.1551 147.656 16.3229 147.15 16.3229Z" fill="black"/>
<path d="M154.972 23.081V30.1746H151.569V17.9045H154.813V20.0694H154.956C155.228 19.3558 155.683 18.7912 156.322 18.3759C156.961 17.9551 157.736 17.7448 158.647 17.7448C159.499 17.7448 160.242 17.9312 160.876 18.304C161.509 18.6767 162.002 19.2093 162.354 19.9016C162.705 20.5886 162.881 21.4088 162.881 22.362V30.1746H159.478V22.9691C159.483 22.2182 159.291 21.6324 158.903 21.2117C158.514 20.7857 157.979 20.5726 157.297 20.5726C156.839 20.5726 156.434 20.6712 156.083 20.8682C155.737 21.0653 155.465 21.3528 155.268 21.731C155.076 22.1037 154.978 22.5537 154.972 23.081Z" fill="black"/>
<path d="M172.089 17.9045V20.4608H164.7V17.9045H172.089ZM166.378 14.9648H169.781V26.4041C169.781 26.7183 169.829 26.9633 169.924 27.1391C170.02 27.3095 170.153 27.4293 170.324 27.4985C170.5 27.5678 170.702 27.6024 170.931 27.6024C171.091 27.6024 171.251 27.5891 171.41 27.5624C171.57 27.5305 171.693 27.5065 171.778 27.4905L172.313 30.0228C172.143 30.0761 171.903 30.1373 171.594 30.2066C171.285 30.2811 170.91 30.3264 170.468 30.3424C169.648 30.3743 168.929 30.2652 168.311 30.0148C167.698 29.7645 167.222 29.3758 166.881 28.8486C166.54 28.3213 166.372 27.6556 166.378 26.8515V14.9648Z" fill="black"/>
<path fill-rule="evenodd" clip-rule="evenodd" d="M16.3833 35.684C13.3714 38.696 8.47636 38.6844 5.4644 35.6724C2.45243 32.6604 2.44079 27.7654 5.45275 24.7535L23.7848 6.42146C26.7967 3.4095 31.6917 3.42114 34.7037 6.4331C37.7157 9.44507 37.7273 14.3401 34.7153 17.352L16.3833 35.684Z" fill="url(#paint0_linear_851_8563)"/>
<rect x="37.0078" y="4.18555" width="15.4459" height="33.7878" rx="7.71262" transform="rotate(90 37.0078 4.18555)" fill="url(#paint1_linear_851_8563)"/>
<rect x="3.21875" y="4.18555" width="15.4459" height="33.7878" rx="7.71262" fill="url(#paint2_linear_851_8563)"/>
<ellipse cx="29.2854" cy="11.9085" rx="7.72293" ry="7.72293" fill="black"/>
<circle cx="10.9417" cy="30.2503" r="7.72293" fill="black"/>
<ellipse cx="10.9417" cy="11.9085" rx="7.72293" ry="7.72293" fill="black"/>
<defs>
<linearGradient id="paint0_linear_851_8563" x1="10.9297" y1="41.1377" x2="40.169" y2="11.8984" gradientUnits="userSpaceOnUse">
<stop stop-color="white" stop-opacity="0.01"/>
<stop offset="1"/>
</linearGradient>
<linearGradient id="paint1_linear_851_8563" x1="37.0078" y1="4.18555" x2="37.0078" y2="37.9734" gradientUnits="userSpaceOnUse">
<stop stop-color="white" stop-opacity="0.01"/>
<stop offset="1" stop-opacity="0.75"/>
</linearGradient>
<linearGradient id="paint2_linear_851_8563" x1="3.21875" y1="4.18555" x2="3.21875" y2="37.9734" gradientUnits="userSpaceOnUse">
<stop stop-color="white" stop-opacity="0.01"/>
<stop offset="1" stop-opacity="0.75"/>
</linearGradient>
</defs>
</svg>
