<svg xmlns="http://www.w3.org/2000/svg" width="301.787" height="60" viewBox="0 0 301.787 60">
  <g id="Group_16206" data-name="Group 16206" transform="translate(-481.632 -454.286)">
    <path id="Path_32357" data-name="Path 32357"
          d="M673.108,511.429a20,20,0,1,0,9.4,37.634,6.633,6.633,0,0,0,3.891,1.255h0a6.667,6.667,0,0,0,6.666-6.666V531.67A20.157,20.157,0,0,0,673.108,511.429Zm.494,26.645a6.667,6.667,0,1,1,6.1-6.1A6.669,6.669,0,0,1,673.6,538.074Z"
          transform="translate(-111.429 -37.143)" fill="#03a9f4"/>
    <rect id="Rectangle_5669" data-name="Rectangle 5669" width="13.333" height="37.778" rx="6.667"
          transform="translate(524.965 475.397)" fill="#03a9f4"/>
    <path id="Path_32358" data-name="Path 32358"
          d="M518.146,515.023a6.667,6.667,0,0,0-9.04,2.678l-7.474,13.766L494.159,517.7h0a6.667,6.667,0,0,0-11.718,6.362h0l13.349,24.588a6.65,6.65,0,0,0,6.966,3.381,6.779,6.779,0,0,0,4.78-3.494l13.288-24.476h0A6.667,6.667,0,0,0,518.146,515.023Z"
          transform="translate(0 -38.953)" fill="#03a9f4"/>
    <path id="Path_32359" data-name="Path 32359"
          d="M797.683,487.619h0a6.666,6.666,0,0,0,6.667,6.666h8.22a.666.666,0,0,1,.666.666l0,2.327a.665.665,0,0,1-.273.54,16.668,16.668,0,1,1,2.1-25.268l0,0a6.666,6.666,0,0,0,9.394-.033,6.335,6.335,0,0,0,0-9.428h0l-.006-.006h0a30,30,0,1,0,.2,42.208,6.684,6.684,0,0,0,1.917-4.672l.016-12.99a6.667,6.667,0,0,0-6.667-6.675H804.35A6.667,6.667,0,0,0,797.683,487.619Z"
          transform="translate(-189.543)" fill="#03a9f4"/>
    <path id="Path_32360" data-name="Path 32360"
          d="M612.108,480.6a6.667,6.667,0,1,1,6.667-6.667A6.667,6.667,0,0,1,612.108,480.6Z"
          transform="translate(-80.476 -8.437)" fill="#03a9f4"/>
    <path id="Path_32361" data-name="Path 32361"
          d="M1215.939,457.46h0a6.667,6.667,0,0,0-6.667,6.667v13.362a20,20,0,1,0,13.333,18.619V464.127A6.667,6.667,0,0,0,1215.939,457.46Zm-12.793,45.534a6.667,6.667,0,1,1,6.1-6.1A6.668,6.668,0,0,1,1203.146,502.994Z"
          transform="translate(-455.633 -2.063)" fill="#03a9f4"/>
    <path id="Path_32362" data-name="Path 32362"
          d="M998.483,511.435v-.006a19.965,19.965,0,0,0-15.835,7.826,13.352,13.352,0,0,1-3.932,3.4l-4.5,2.6a20,20,0,1,0-3.158,18.347,13.352,13.352,0,0,1,3.932-3.4l3.808-2.2a.665.665,0,0,1,.957.347,20.006,20.006,0,0,0,18.733,13.075h0a20,20,0,0,0,0-39.993Zm-36.654,20.535a6.667,6.667,0,1,1-7.186-7.186A6.69,6.69,0,0,1,961.829,531.969Zm43.267,0a6.69,6.69,0,0,1-6.1,6.1c-.171.014-.34.018-.508.019h0a6.666,6.666,0,0,1-.507-13.309c.171-.014.339-.018.507-.019h0A6.666,6.666,0,0,1,1005.1,531.969Z"
          transform="translate(-294.808 -37.142)" fill="#03a9f4"/>
    <g id="Group_16194" data-name="Group 16194" transform="translate(770.085 455.397)">
      <path id="Path_32363" data-name="Path 32363"
            d="M1312.449,457.46a6.667,6.667,0,1,0,6.667,6.667A6.667,6.667,0,0,0,1312.449,457.46Zm0,12a5.333,5.333,0,1,1,5.334-5.333A5.333,5.333,0,0,1,1312.449,469.46Z"
            transform="translate(-1305.783 -457.46)" fill="#03a9f4"/>
      <path id="Path_32364" data-name="Path 32364"
            d="M1322.631,472.438l-1.179-1.9a2.122,2.122,0,0,0,1.05-1.871,2.367,2.367,0,0,0-.307-1.2,2.142,2.142,0,0,0-.865-.828,2.61,2.61,0,0,0-1.235-.291h-1.536a.652.652,0,0,0-.666.666v5.779a.653.653,0,0,0,.193.473.691.691,0,0,0,.954,0,.662.662,0,0,0,.185-.469v-1.9h.9l1.4,2.253a.652.652,0,0,0,.572.316.638.638,0,0,0,.469-.181.614.614,0,0,0,.18-.443A.747.747,0,0,0,1322.631,472.438Zm-1.427-3.766a.855.855,0,0,1-.3.682,1.174,1.174,0,0,1-.809.274h-.871v-2.014h.871a1.108,1.108,0,0,1,.8.3A1,1,0,0,1,1321.2,468.671Z"
            transform="translate(-1313.654 -463.238)" fill="#03a9f4"/>
    </g>
  </g>
</svg>
