<?xml version="1.0" standalone="no"?>
<!DOCTYPE svg PUBLIC "-//W3C//DTD SVG 20010904//EN"
 "http://www.w3.org/TR/2001/REC-SVG-20010904/DTD/svg10.dtd">
<svg version="1.0" xmlns="http://www.w3.org/2000/svg"
 width="743.000000pt" height="743.000000pt" viewBox="0 0 743.000000 743.000000"
 preserveAspectRatio="xMidYMid meet">
<metadata>
Created by potrace 1.14, written by Peter Selinger 2001-2017
</metadata>
<g transform="translate(0.000000,743.000000) scale(0.100000,-0.100000)"
fill="#000000" stroke="none">
<path d="M3600 7234 c-149 -10 -363 -54 -551 -112 -83 -26 -119 -31 -304 -41
-631 -34 -920 -96 -1121 -244 -33 -23 -108 -77 -169 -120 -306 -214 -510 -372
-581 -450 -75 -81 -170 -230 -429 -672 -49 -82 -91 -152 -94 -155 -9 -8 -48
-78 -77 -138 -63 -129 -50 -310 36 -516 77 -184 223 -349 400 -453 223 -131
293 -161 655 -283 298 -102 396 -141 480 -194 153 -96 314 -198 352 -222 80
-49 183 -54 396 -18 l39 7 -42 -84 c-49 -96 -146 -261 -197 -334 -80 -113
-217 -275 -229 -271 -8 3 -11 0 -8 -8 2 -6 -26 -41 -63 -77 -61 -57 -98 -90
-208 -184 -16 -14 -51 -40 -77 -58 -26 -17 -48 -37 -48 -43 0 -17 154 -25 244
-14 151 19 301 74 413 151 26 19 53 33 60 31 6 -1 14 7 18 18 3 11 10 20 14
20 13 0 137 123 200 198 75 91 152 200 220 315 51 84 191 367 205 415 4 12 12
22 17 22 23 0 37 -74 84 -450 43 -341 56 -534 65 -1000 10 -482 15 -541 66
-729 89 -328 261 -592 596 -916 86 -82 183 -171 216 -197 81 -64 208 -158 257
-190 119 -80 267 -42 393 99 127 144 131 198 21 295 -19 16 -28 32 -23 39 4 7
3 9 -3 6 -14 -9 -276 235 -366 339 -192 224 -288 407 -338 647 -28 134 -30
437 -5 632 26 199 80 507 140 794 32 156 62 327 82 465 l7 49 22 -54 c28 -70
87 -186 137 -272 21 -37 36 -72 32 -79 -4 -6 -3 -8 3 -5 6 4 26 -16 44 -46 38
-59 142 -190 203 -256 23 -24 40 -48 38 -53 -1 -5 1 -7 6 -4 5 3 33 -15 63
-40 137 -114 292 -196 439 -234 89 -22 288 -38 335 -26 27 7 27 8 9 24 -11 9
-55 44 -99 77 -97 73 -323 294 -395 388 -113 146 -205 288 -285 441 l-65 123
74 7 c138 12 269 60 383 138 28 19 104 54 170 78 65 24 145 58 178 76 67 36
211 90 520 195 330 112 600 251 741 383 154 143 264 357 294 572 21 160 4 214
-162 489 -48 80 -127 212 -174 293 -113 192 -242 389 -288 439 -19 22 -32 43
-28 47 4 4 2 6 -3 5 -6 -2 -55 32 -110 76 -55 44 -135 105 -177 135 -43 30
-78 61 -78 68 0 7 -4 10 -10 7 -5 -3 -36 14 -67 38 -147 111 -368 261 -425
286 -90 41 -215 77 -348 101 -135 23 -494 57 -700 66 -144 6 -152 7 -365 68
-96 28 -301 65 -415 75 -111 11 -142 11 -240 5z m256 -125 c28 -5 82 -25 120
-43 68 -32 106 -55 313 -191 57 -36 105 -64 108 -61 9 8 -48 79 -108 133 -31
28 -54 54 -51 58 4 4 2 5 -4 3 -14 -4 -74 39 -74 52 0 17 36 11 142 -24 185
-61 260 -122 339 -276 l34 -65 5 92 c7 123 9 125 195 138 44 3 107 10 140 15
192 31 435 -20 657 -137 90 -47 606 -418 658 -473 3 -3 45 -39 94 -80 130
-109 209 -210 310 -394 36 -68 136 -284 136 -296 0 -4 -30 4 -67 16 -82 28
-301 68 -478 89 -241 29 -565 32 -565 6 0 -5 78 -16 173 -26 94 -10 179 -19
187 -20 8 -1 40 -6 70 -10 55 -7 259 -40 302 -49 203 -44 433 -109 453 -130
26 -27 75 -118 69 -128 -4 -6 -3 -8 3 -5 13 8 59 -92 74 -163 17 -78 4 -203
-30 -311 -29 -89 -74 -165 -92 -154 -5 4 -9 -1 -9 -9 0 -17 -41 -49 -184 -143
-82 -53 -104 -63 -121 -55 -11 5 -88 51 -170 102 -169 105 -311 176 -370 185
-36 6 -32 2 40 -35 44 -23 139 -81 210 -130 72 -49 161 -108 198 -131 l68 -42
-68 -44 c-83 -54 -203 -112 -303 -147 -41 -14 -138 -48 -215 -75 -290 -103
-735 -242 -748 -234 -6 3 -7 1 -3 -5 4 -7 4 -12 -1 -12 -4 1 -26 24 -48 52
-58 74 -290 286 -301 276 -5 -6 31 -72 56 -103 36 -44 103 -158 125 -212 30
-72 23 -86 -58 -123 -76 -33 -129 -46 -227 -55 l-75 -7 -38 97 c-35 88 -37 99
-26 132 16 51 5 236 -21 343 -46 185 -36 271 56 509 89 228 125 332 151 428
25 96 26 104 24 403 l-2 305 37 62 c52 88 172 233 191 233 9 0 13 3 10 6 -14
14 150 173 284 274 42 33 79 56 83 53 3 -4 6 -2 6 3 0 6 18 20 40 33 60 33 38
44 -33 17 -174 -65 -334 -179 -565 -401 -57 -55 -108 -101 -112 -103 -9 -4
-10 -3 -81 208 -59 171 -142 360 -160 360 -11 0 -14 14 21 -125 17 -66 33
-160 36 -210 l5 -90 -61 64 c-33 35 -58 66 -56 68 2 3 -3 13 -12 22 -53 56
-117 137 -114 146 2 5 0 7 -3 3 -4 -4 -26 5 -49 21 -77 52 -154 69 -92 20 37
-29 139 -163 235 -308 46 -69 102 -152 126 -185 121 -171 177 -367 177 -616 0
-187 -34 -301 -169 -576 -33 -65 -68 -140 -78 -166 -28 -75 -36 -76 -82 -5
-70 106 -130 340 -140 546 -5 95 -4 113 8 109 8 -3 13 -10 12 -15 -1 -5 6 -9
15 -10 9 -1 37 -9 62 -18 80 -30 155 -7 205 63 27 39 30 51 30 117 0 47 -5 79
-13 87 -8 8 -38 13 -76 13 -55 0 -70 -4 -108 -30 -23 -17 -61 -58 -83 -92 -22
-34 -43 -62 -46 -62 -4 -1 -3 17 2 40 27 119 96 166 235 157 41 -3 74 -2 74 3
0 4 -20 15 -45 24 -63 25 -184 17 -226 -14 -35 -26 -35 -32 -14 134 24 195 16
216 -24 60 -55 -219 -77 -479 -61 -712 16 -227 31 -290 127 -533 115 -289 168
-499 148 -590 -14 -65 -98 -132 -182 -146 -30 -4 -44 -1 -66 16 -55 43 -99
162 -137 368 -12 67 -27 122 -33 122 -10 0 -8 -133 9 -515 12 -270 -38 -855
-96 -1140 -71 -343 -93 -523 -93 -770 0 -198 16 -321 60 -455 99 -300 329
-611 664 -896 86 -73 105 -103 87 -137 -22 -42 -73 -99 -118 -132 -60 -43
-106 -58 -148 -46 -34 10 -160 97 -282 195 -107 86 -371 347 -363 359 3 6 2 7
-4 4 -11 -7 -16 -1 -110 114 -201 247 -293 459 -349 809 -13 85 -18 221 -25
710 -4 333 -11 623 -14 645 -9 63 -43 334 -65 524 -13 109 -21 238 -21 343 0
92 -2 168 -4 168 -2 0 -18 -44 -36 -97 -67 -205 -87 -219 -246 -168 -119 37
-157 86 -156 200 2 145 48 301 167 570 61 138 78 189 91 265 21 133 30 422 16
552 -16 163 -54 338 -72 338 -6 0 -8 -8 -5 -17 12 -39 36 -345 36 -458 0 -212
-34 -341 -152 -585 l-71 -144 -13 49 c-7 28 -40 118 -74 200 -150 368 -167
422 -177 576 -12 178 40 466 108 601 44 87 216 296 371 451 76 75 134 137 129
137 -26 0 -192 -140 -319 -269 l-144 -146 5 70 c2 39 7 80 12 93 4 12 3 22 -2
22 -16 0 -80 -107 -123 -209 -24 -56 -46 -101 -49 -101 -3 0 -39 47 -80 104
-71 102 -171 209 -241 262 -70 51 -253 134 -267 120 -4 -3 11 -13 33 -22 114
-47 333 -211 318 -236 -4 -6 -3 -8 3 -5 19 12 108 -128 150 -237 l28 -71 0
-350 c1 -326 2 -357 24 -455 32 -146 71 -270 167 -528 65 -174 81 -227 75
-245 -15 -39 -40 -146 -56 -241 -18 -104 -19 -191 -4 -250 9 -38 7 -51 -20
-123 -30 -78 -33 -81 -69 -87 -57 -9 -243 -7 -300 4 -57 10 -242 96 -286 133
l-29 23 99 130 c100 132 184 237 286 357 32 37 58 70 58 72 0 12 -18 3 -47
-25 -18 -17 -34 -30 -36 -30 -2 0 -33 -30 -70 -66 -36 -37 -71 -63 -77 -59 -6
3 -9 2 -8 -2 2 -5 -52 -68 -119 -139 -67 -71 -131 -141 -143 -156 -20 -26 -23
-27 -48 -14 -15 7 -124 46 -242 86 -283 95 -508 174 -598 211 -101 41 -224
116 -394 240 l-77 55 57 33 c308 179 580 294 807 343 49 10 55 13 30 16 -76
10 -390 -65 -600 -142 -152 -56 -328 -139 -366 -173 -15 -12 -20 -10 -43 18
-48 57 -127 264 -146 382 -19 113 -6 161 87 328 42 77 80 139 85 139 4 0 36
13 70 28 101 46 317 130 398 154 74 23 74 23 35 26 -40 4 -281 -13 -365 -25
l-44 -6 15 24 c9 13 58 101 108 194 116 212 183 325 193 325 4 0 8 6 8 14 0 7
17 26 38 42 20 15 39 30 42 33 34 38 683 467 776 514 75 38 149 65 274 101 66
18 99 21 270 20 233 -1 344 -14 373 -42 27 -28 32 -101 13 -187 -39 -173 -47
-216 -43 -228 3 -6 15 13 28 43 42 99 125 263 177 349 58 96 57 96 264 156
271 79 533 107 704 74z m-1009 -3277 c14 -9 -41 -214 -82 -308 -48 -109 -19
-90 40 27 18 36 48 109 65 162 17 53 35 97 40 97 22 0 140 -61 140 -72 0 -27
-171 -347 -258 -483 -110 -171 -288 -385 -310 -371 -9 5 -5 18 15 46 15 21 31
36 35 33 5 -2 8 2 8 10 0 9 24 55 54 103 30 49 53 90 50 93 -2 2 -5 2 -7 0 -2
-2 -25 -33 -52 -69 -94 -125 -186 -230 -197 -224 -6 4 -8 2 -4 -4 7 -11 -97
-108 -166 -153 -40 -27 -122 -48 -134 -36 -3 3 12 18 33 34 43 32 176 172 264
279 157 193 327 499 405 732 20 61 40 112 43 112 3 0 11 -4 18 -8z m1819 -122
c49 -143 136 -324 218 -460 31 -51 55 -94 53 -97 -4 -4 -113 124 -151 177
l-18 25 6 -28 c4 -16 30 -65 57 -110 87 -141 180 -245 279 -315 36 -25 88 -66
115 -92 28 -25 73 -65 100 -89 l50 -43 -51 5 c-28 3 -79 17 -114 31 -252 103
-494 387 -751 883 -57 111 -71 145 -61 155 15 15 9 23 72 -102 65 -129 168
-308 182 -317 16 -9 7 16 -50 142 -49 109 -126 315 -119 321 7 7 122 43 131
40 5 -1 28 -58 52 -126z"/>
<path d="M3940 6810 c0 -18 20 -95 45 -171 44 -137 77 -286 91 -406 3 -35 11
-63 16 -63 7 0 9 57 6 158 -5 181 -32 303 -96 432 -41 83 -62 99 -62 50z"/>
<path d="M5550 5973 c-89 -16 -273 -77 -343 -114 -37 -20 -8 -20 65 0 103 29
241 50 398 61 172 12 210 19 210 35 0 7 -14 15 -31 19 -34 7 -259 6 -299 -1z"/>
<path d="M2811 5711 c-16 -11 -7 -16 42 -25 21 -4 35 -11 32 -15 -2 -5 3 -8
13 -7 9 0 16 -5 14 -12 -1 -8 1 -11 6 -8 20 12 74 -78 86 -145 l7 -34 -21 39
c-32 58 -103 123 -148 137 -24 7 -58 9 -87 5 -54 -9 -65 -27 -65 -108 0 -66
29 -126 77 -158 55 -38 142 -36 209 5 41 26 50 37 56 70 10 55 -9 143 -39 183
-38 51 -147 95 -182 73z"/>
<path d="M4700 5542 c0 -72 -26 -148 -67 -193 -38 -42 -72 -49 -143 -29 -45
13 -62 -3 -24 -23 71 -35 133 -28 188 22 52 48 86 159 72 236 -10 51 -26 43
-26 -13z"/>
<path d="M2644 5555 c-11 -44 2 -148 24 -192 40 -77 108 -113 185 -99 36 7 76
31 66 40 -3 3 -31 1 -63 -5 -31 -5 -66 -7 -77 -4 -53 17 -108 121 -114 215 -4
70 -11 85 -21 45z"/>
<path d="M6310 5380 c-118 -13 -164 -22 -250 -46 -94 -27 -245 -96 -318 -146
-64 -43 -152 -118 -152 -129 0 -5 21 1 48 15 286 144 624 241 1027 293 l50 6
-40 8 c-49 10 -276 9 -365 -1z"/>
<path d="M3584 4807 c-78 -17 -218 -86 -203 -101 2 -2 42 7 89 20 146 43 434
47 562 9 28 -8 54 -13 56 -10 8 7 -96 52 -163 70 -79 22 -263 28 -341 12z"/>
<path d="M3600 4479 c-31 -4 -81 -17 -112 -29 -60 -22 -148 -76 -148 -91 0
-11 -6 -12 81 10 167 43 485 51 647 17 34 -7 62 -10 62 -6 0 11 -73 47 -140
68 -118 38 -266 50 -390 31z"/>
<path d="M3530 4147 c-72 -21 -134 -52 -172 -85 -21 -18 -13 -36 10 -23 9 5
58 17 107 27 121 25 521 26 603 2 124 -36 31 24 -108 70 -62 20 -100 25 -220
28 -130 4 -153 2 -220 -19z"/>
<path d="M3607 3850 c-85 -15 -158 -43 -219 -82 -33 -22 -58 -41 -55 -44 3 -3
47 4 99 15 204 46 495 50 656 9 66 -17 62 -2 -9 32 -131 61 -346 93 -472 70z"/>
<path d="M3570 3516 c-76 -17 -203 -86 -188 -102 3 -3 26 0 49 6 174 47 469
53 638 14 37 -9 17 9 -44 39 -104 52 -322 72 -455 43z"/>
<path d="M3530 3200 c-30 -10 -59 -16 -64 -13 -5 3 -6 2 -3 -4 4 -5 -5 -16
-18 -23 -13 -7 -26 -18 -28 -25 -4 -8 13 -8 66 3 87 17 403 20 462 5 75 -20
95 -23 95 -15 0 13 -108 60 -175 77 -87 22 -265 20 -335 -5z"/>
<path d="M3602 2899 c-54 -9 -145 -50 -158 -70 -5 -9 2 -10 27 -5 125 26 330
26 458 0 41 -8 76 -12 78 -10 6 6 -64 44 -113 61 -51 17 -162 35 -209 34 -16
-1 -54 -5 -83 -10z"/>
<path d="M3594 2600 c-46 -7 -164 -52 -164 -63 0 -2 69 -2 154 1 160 5 283 -7
369 -35 27 -8 51 -13 53 -10 8 8 -95 63 -151 81 -46 14 -176 37 -200 35 -5 -1
-33 -5 -61 -9z"/>
<path d="M3511 2257 c-59 -24 -85 -54 -34 -40 76 21 373 1 456 -32 9 -4 17 -3
17 2 0 14 -99 60 -166 78 -87 23 -207 19 -273 -8z"/>
<path d="M3587 1969 c-49 -12 -137 -57 -137 -70 0 -7 9 -9 23 -5 87 26 378 33
430 11 9 -4 17 -3 17 3 0 5 -21 19 -47 30 -94 39 -201 51 -286 31z"/>
<path d="M3735 1639 c-103 -16 -245 -74 -245 -100 0 -13 1 -13 171 30 84 22
182 45 216 51 35 7 60 17 57 22 -7 10 -123 8 -199 -3z"/>
<path d="M3872 1379 c-66 -13 -153 -56 -194 -97 -47 -45 -52 -73 -8 -42 51 36
191 97 268 115 109 27 52 48 -66 24z"/>
<path d="M4035 1135 c-56 -40 -198 -105 -231 -105 -20 0 -17 -20 4 -21 85 -5
166 27 237 92 45 42 73 80 58 78 -4 0 -35 -20 -68 -44z"/>
<path d="M4200 961 c-37 -41 -129 -105 -195 -137 l-40 -19 29 -3 c70 -8 194
76 237 160 25 48 14 48 -31 -1z"/>
<path d="M4330 773 c-25 -25 -79 -64 -120 -87 -59 -32 -70 -42 -52 -44 34 -5
88 16 137 53 24 18 47 30 51 27 4 -4 4 -1 0 6 -5 8 -2 21 7 30 20 24 39 62 30
61 -4 0 -28 -21 -53 -46z"/>
<path d="M4498 683 c-25 -43 -107 -125 -118 -118 -6 3 -10 1 -10 -6 0 -7 -15
-25 -32 -41 -31 -27 -32 -29 -8 -22 53 14 92 38 124 78 30 36 76 116 76 131 0
14 -17 2 -32 -22z"/>
<path d="M4635 530 c-27 -40 -82 -94 -140 -138 l-30 -23 33 5 c19 3 48 16 65
28 18 13 35 23 40 23 4 0 6 2 5 5 -1 3 10 24 25 47 25 39 45 93 34 93 -2 0
-17 -18 -32 -40z"/>
</g>
</svg>
